<?xml version="1.0" encoding="UTF-8"?>
<svg version="1.1" xmlns="http://www.w3.org/2000/svg" width="2048" height="2048">
<path d="M0 0 C4.98259317 0.00916783 9.96471662 0.00229393 14.94726562 -0.02050781 C45.09232137 -0.15781838 74.7654343 0.68587009 104.73890686 3.99214172 C110.50199549 4.62071473 116.2774724 5.06993683 122.05761719 5.50854492 C130.28273228 6.19673263 138.36623668 7.35514354 146.50292969 8.72729492 C150.90284055 9.45776002 155.31156788 9.96974237 159.74511719 10.44604492 C166.23632687 11.15436788 172.56138525 12.25825249 178.94433594 13.66479492 C182.41055711 14.3857097 185.89337745 14.85519003 189.40136719 15.32885742 C197.61585461 16.47630554 205.69451211 18.11815394 213.80761719 19.82104492 C215.32582662 20.13665096 216.84405594 20.4521613 218.36230469 20.76757812 C227.01958114 22.57349671 235.65266019 24.45319603 244.24511719 26.54760742 C247.85377068 27.41218065 251.47109053 28.20817275 255.09814453 28.99047852 C261.1509834 30.29870057 267.05919439 31.63278708 272.89355469 33.73901367 C275.40002544 34.5822687 277.92434086 35.20087112 280.49511719 35.82104492 C292.4894448 38.74352069 304.27441543 42.48580545 316.04199219 46.20385742 C318.6517427 47.0279215 321.2658561 47.83450049 323.88574219 48.62573242 C331.90217424 51.05981088 339.77277273 53.77060475 347.61816406 56.71020508 C354.47846902 59.2779431 361.3854884 61.6959558 368.32226562 64.04907227 C372.73932236 65.56885153 376.83356668 67.30129269 380.99511719 69.44604492 C382.27495133 69.89775109 383.56677421 70.31748057 384.87011719 70.69604492 C390.09740821 72.36771667 395.04414266 74.59981543 400.05249023 76.82568359 C403.73712676 78.46181248 407.42414727 80.04691773 411.18261719 81.50854492 C416.09068314 83.43376271 420.85146164 85.64621659 425.62402344 87.88354492 C431.14090979 90.44061855 436.70378312 92.89047399 442.28417969 95.30541992 C450.81695319 99.01379718 459.09672687 102.97516462 467.26074219 107.43432617 C471.24645703 109.60439722 475.30233573 111.62266684 479.37011719 113.63354492 C484.2669502 116.06073659 489.10939336 118.5372637 493.86230469 121.23901367 C496.36692479 122.65646351 498.8992959 124.01809181 501.43261719 125.38354492 C505.8574352 127.78980896 510.17234722 130.33803042 514.47558594 132.95385742 C517.05280646 134.48021128 519.66717098 135.90720252 522.30761719 137.32104492 C527.50366179 140.12676325 532.51437277 143.18095048 537.52636719 146.30151367 C541.23661412 148.60762405 544.99095156 150.83744093 548.74511719 153.07104492 C554.27583737 156.37137573 559.6782164 159.80924381 564.99511719 163.44604492 C568.15162002 165.57095326 571.32321059 167.66475053 574.53808594 169.69995117 C575.13685547 170.07958008 575.735625 170.45920898 576.35253906 170.8503418 C577.58272625 171.62889143 578.81452796 172.40489524 580.04785156 173.1784668 C583.00365288 175.05826677 585.58483948 176.90930202 587.99511719 179.44604492 C589.61950842 180.37426848 591.24584325 181.29940838 592.88574219 182.19995117 C596.35129412 184.24719389 599.58634208 186.61771724 602.85839844 188.95776367 C604.91275136 190.46496137 604.91275136 190.46496137 606.99511719 191.44604492 C606.99511719 192.10604492 606.99511719 192.76604492 606.99511719 193.44604492 C607.71699219 193.69483398 608.43886719 193.94362305 609.18261719 194.19995117 C612.26406788 195.56520502 614.41779715 197.22101233 616.99511719 199.38354492 C619.54702748 201.51678243 621.92593785 203.40597855 624.80761719 205.07495117 C625.89042969 205.75364258 625.89042969 205.75364258 626.99511719 206.44604492 C626.99511719 207.10604492 626.99511719 207.76604492 626.99511719 208.44604492 C627.73246094 208.70901367 628.46980469 208.97198242 629.22949219 209.24291992 C632.02187874 210.45768695 633.90681512 211.76147846 636.24511719 213.69604492 C637.10363281 214.39987305 637.96214844 215.10370117 638.84667969 215.82885742 C639.89639916 216.70096409 640.9458505 217.57339355 641.99511719 218.44604492 C644.12114693 220.20505041 646.24855438 221.9623675 648.37695312 223.71850586 C649.83793674 224.92507352 651.29702198 226.1339447 652.75390625 227.34545898 C656.91101099 230.78869786 661.13132165 234.06253935 665.53955078 237.17993164 C666.26005615 237.80665771 666.26005615 237.80665771 666.99511719 238.44604492 C666.99511719 239.10604492 666.99511719 239.76604492 666.99511719 240.44604492 C668.07792969 240.78635742 668.07792969 240.78635742 669.18261719 241.13354492 C671.89917111 242.40127009 673.38284022 243.70676982 675.39355469 245.87963867 C678.3439116 248.76523165 681.70708343 251.1750352 684.98339844 253.67651367 C685.64726563 254.26045898 686.31113281 254.8444043 686.99511719 255.44604492 C686.99511719 256.10604492 686.99511719 256.76604492 686.99511719 257.44604492 C687.57849854 257.70724121 688.16187988 257.9684375 688.76293945 258.23754883 C691.12981785 259.51897157 692.77105392 260.92174469 694.70996094 262.78198242 C695.39638672 263.43424805 696.0828125 264.08651367 696.79003906 264.75854492 C697.49708984 265.43916992 698.20414063 266.11979492 698.93261719 266.82104492 C700.33592909 268.16390251 701.74083843 269.50509304 703.14746094 270.84448242 C704.13721924 271.78759277 704.13721924 271.78759277 705.14697266 272.74975586 C706.69871876 274.1740005 708.34050445 275.49926096 709.99902344 276.79760742 C710.65773438 277.3415918 711.31644531 277.88557617 711.99511719 278.44604492 C711.99511719 279.10604492 711.99511719 279.76604492 711.99511719 280.44604492 C712.95417969 280.84823242 712.95417969 280.84823242 713.93261719 281.25854492 C715.99511719 282.44604492 715.99511719 282.44604492 716.99511719 285.44604492 C717.65511719 285.77604492 718.31511719 286.10604492 718.99511719 286.44604492 C719.65511719 286.77604492 720.31511719 287.10604492 720.99511719 287.44604492 C721.32511719 288.43604492 721.65511719 289.42604492 721.99511719 290.44604492 C722.65511719 290.77604492 723.31511719 291.10604492 723.99511719 291.44604492 C724.65511719 291.77604492 725.31511719 292.10604492 725.99511719 292.44604492 C726.32511719 293.43604492 726.65511719 294.42604492 726.99511719 295.44604492 C727.57261719 295.56979492 728.15011719 295.69354492 728.74511719 295.82104492 C732.14242605 296.76474183 733.73329459 298.81744028 735.99511719 301.44604492 C736.33739136 302.77711114 736.67263462 304.11004571 736.99511719 305.44604492 C738.31158837 306.14542024 739.6453387 306.81333626 740.99511719 307.44604492 C741.32511719 308.43604492 741.65511719 309.42604492 741.99511719 310.44604492 C742.65511719 310.77604492 743.31511719 311.10604492 743.99511719 311.44604492 C744.65511719 311.77604492 745.31511719 312.10604492 745.99511719 312.44604492 C746.32511719 313.43604492 746.65511719 314.42604492 746.99511719 315.44604492 C747.65511719 315.77604492 748.31511719 316.10604492 748.99511719 316.44604492 C749.65511719 316.77604492 750.31511719 317.10604492 750.99511719 317.44604492 C751.32511719 318.43604492 751.65511719 319.42604492 751.99511719 320.44604492 C753.32613776 321.1173172 754.65988859 321.78318233 755.99511719 322.44604492 C758.00292969 324.44213867 758.00292969 324.44213867 760.12011719 326.88354492 C762.65254131 329.77834587 765.18236286 332.66674862 767.80371094 335.48120117 C768.49279541 336.22382202 768.49279541 336.22382202 769.19580078 336.98144531 C770.50352939 338.38787484 771.81372399 339.7920102 773.12402344 341.19604492 C774.99511719 343.44604492 774.99511719 343.44604492 774.99511719 345.44604492 C775.65511719 345.44604492 776.31511719 345.44604492 776.99511719 345.44604492 C778.47280936 347.08037247 779.87781038 348.7808086 781.24511719 350.50854492 C783.95460328 353.90525124 786.67311864 357.2591814 789.55761719 360.50854492 C791.99511719 363.44604492 791.99511719 363.44604492 791.99511719 365.44604492 C792.98511719 365.77604492 793.97511719 366.10604492 794.99511719 366.44604492 C796.74782782 368.49482154 798.38016093 370.5432447 799.99511719 372.69604492 C803.76910077 377.62405132 807.62842569 382.43341451 811.68261719 387.13354492 C816.44548901 392.68533296 820.75886447 398.48147624 824.99511719 404.44604492 C825.98987127 405.78329661 826.9895184 407.1169291 827.99511719 408.44604492 C828.99600173 409.77871439 829.99590492 411.11212115 830.99511719 412.44604492 C832.05859375 413.86530273 832.05859375 413.86530273 833.14355469 415.31323242 C833.87832031 416.30581055 834.61308594 417.29838867 835.37011719 418.32104492 C836.05847656 419.2465918 836.74683594 420.17213867 837.45605469 421.12573242 C838.99511719 423.44604492 838.99511719 423.44604492 838.99511719 425.44604492 C839.65511719 425.44604492 840.31511719 425.44604492 840.99511719 425.44604492 C842.44042969 427.46557617 842.44042969 427.46557617 844.12011719 430.25854492 C846.56452856 434.21808731 849.0924503 438.02536062 851.87011719 441.75854492 C855.3607853 446.48478802 858.55231648 451.34581078 861.69628906 456.30444336 C864.50121442 460.7167129 867.43877899 465.01366052 870.48730469 469.26245117 C872.10144608 471.60002899 873.54471721 474.00385472 874.99511719 476.44604492 C876.13605273 478.24083448 877.28205087 480.03241399 878.43261719 481.82104492 C886.04636076 493.78779378 886.04636076 493.78779378 887.99511719 500.44604492 C888.65511719 500.44604492 889.31511719 500.44604492 889.99511719 500.44604492 C890.54039062 501.46311523 890.54039062 501.46311523 891.09667969 502.50073242 C893.63188202 507.194107 896.20154911 511.838454 898.99511719 516.38354492 C901.83251108 521.04073332 904.22270163 525.86382149 906.62011719 530.75854492 C908.18954714 533.82606711 910.05550736 536.60128384 911.99511719 539.44604492 C912.64160294 540.66932411 913.26771349 541.90349397 913.87792969 543.14526367 C914.22774902 543.85376465 914.57756836 544.56226563 914.93798828 545.29223633 C915.28684082 546.00299316 915.63569336 546.71375 915.99511719 547.44604492 C916.92860278 549.33281586 917.86380964 551.21872084 918.79980469 553.10424805 C919.4160343 554.34561968 920.03069521 555.58777164 920.64355469 556.83081055 C922.60548343 560.77460633 924.65094212 564.66283281 926.75366211 568.53363037 C931.11213488 576.58390334 935.03729797 584.77817094 938.78759766 593.12744141 C939.75351487 595.27723523 940.72723774 597.42336349 941.70214844 599.5690918 C944.66883704 606.12062331 947.55325382 612.68650074 950.171875 619.38671875 C951.32732097 622.27704697 952.65180102 625.07645216 953.99511719 627.88354492 C956.24389562 632.70155272 958.19053817 637.51988271 959.94433594 642.53588867 C961.14378132 645.85777272 962.47106036 649.11444682 963.80761719 652.38354492 C966.53450009 659.09974045 968.95113712 665.90507295 971.31640625 672.75585938 C973.3222131 678.55695664 975.41219121 684.32025966 977.55761719 690.07104492 C979.89744782 696.37482391 982.15866913 702.69949722 984.30761719 709.07104492 C984.5500415 709.78083496 984.79246582 710.490625 985.04223633 711.22192383 C986.47361725 715.5206171 987.55114745 719.8063822 988.49243164 724.23657227 C989.2807939 727.7016905 990.34500314 731.06509273 991.43261719 734.44604492 C991.65288574 735.14318604 991.8731543 735.84032715 992.10009766 736.55859375 C993.22428531 740.10172596 994.39422997 743.62452384 995.62011719 747.13354492 C997.52991443 752.78783225 998.71262979 758.62449219 999.99511719 764.44604492 C1001.47566471 771.13682524 1003.05059091 777.74810248 1004.99511719 784.32104492 C1006.35538461 788.98316678 1007.48468925 793.61099814 1008.40136719 798.37963867 C1009.4474235 803.74218941 1010.54820347 809.08868006 1011.71386719 814.42651367 C1014.68509691 828.08814311 1017.56068699 841.69232558 1019.44824219 855.55541992 C1019.87979916 858.62563949 1020.39641844 861.60805974 1021.05761719 864.63354492 C1022.0987188 869.53184269 1022.62516669 874.47879614 1023.17504883 879.45043945 C1023.71769123 884.28773872 1024.3733158 889.09541692 1025.1027832 893.90795898 C1026.63207519 904.04487139 1027.6748497 914.15355116 1028.4284668 924.37597656 C1028.79181161 929.12623055 1029.23457502 933.86031769 1029.73364258 938.59814453 C1032.35113108 964.53099774 1032.49146216 990.40403639 1032.44116211 1016.45092773 C1032.43199428 1021.43352091 1032.43886818 1026.41564435 1032.46166992 1031.39819336 C1032.59898049 1061.54324911 1031.75529202 1091.21636204 1028.44902039 1121.18983459 C1027.82044738 1126.95292322 1027.37122528 1132.72840014 1026.93261719 1138.50854492 C1026.24442947 1146.73366001 1025.08601857 1154.81716442 1023.71386719 1162.95385742 C1022.98340209 1167.35376829 1022.47141974 1171.76249561 1021.99511719 1176.19604492 C1021.28679423 1182.6872546 1020.18290961 1189.01231298 1018.77636719 1195.39526367 C1018.05545241 1198.86148484 1017.58597208 1202.34430518 1017.11230469 1205.85229492 C1015.96485657 1214.06678234 1014.32300817 1222.14543985 1012.62011719 1230.25854492 C1012.30451115 1231.77675435 1011.98900081 1233.29498367 1011.67358398 1234.81323242 C1009.8676654 1243.47050888 1007.98796608 1252.10358793 1005.89355469 1260.69604492 C1005.02892243 1264.30494477 1004.23292217 1267.92253001 1003.45043945 1271.54980469 C1002.1420667 1277.60434433 1000.8303127 1283.53158541 998.69091797 1289.35839844 C998.00039986 1291.43019504 997.52362341 1293.45627839 997.08496094 1295.59448242 C996.02577836 1300.47998701 994.64586236 1305.230717 993.18261719 1310.00854492 C992.91908447 1310.87769531 992.65555176 1311.7468457 992.3840332 1312.64233398 C990.35844078 1319.30525829 988.29775253 1325.95716664 986.20214844 1332.59838867 C985.39170884 1335.16923609 984.59871238 1337.74452193 983.81933594 1340.32495117 C981.38348653 1348.34516276 978.67201203 1356.21981817 975.73095703 1364.0690918 C973.16321901 1370.92939676 970.74520631 1377.83641613 968.39208984 1384.77319336 C966.87231058 1389.1902501 965.13986942 1393.28449442 962.99511719 1397.44604492 C962.54341102 1398.72587906 962.12368154 1400.01770194 961.74511719 1401.32104492 C960.07344544 1406.54833594 957.84134668 1411.4950704 955.61547852 1416.50341797 C953.97934963 1420.18805449 952.39424438 1423.87507501 950.93261719 1427.63354492 C949.0073994 1432.54161088 946.79494552 1437.30238937 944.55761719 1442.07495117 C942.00054356 1447.59183752 939.55068812 1453.15471086 937.13574219 1458.73510742 C933.42618625 1467.270593 929.46295338 1475.55259615 925.00292969 1483.71948242 C922.85656442 1487.6618288 920.85888661 1491.67245435 918.87011719 1495.69604492 C915.72910335 1502.03355143 912.43984167 1508.26725545 908.99511719 1514.44604492 C908.57617188 1515.21174805 908.15722656 1515.97745117 907.72558594 1516.76635742 C905.59073613 1520.65652819 903.37696639 1524.4752948 901.05761719 1528.25854492 C898.18178991 1532.99957283 895.71084516 1537.89237999 893.29199219 1542.87963867 C891.99511719 1545.44604492 891.99511719 1545.44604492 889.99511719 1548.44604492 C889.33511719 1548.44604492 888.67511719 1548.44604492 887.99511719 1548.44604492 C887.62386719 1549.71448242 887.62386719 1549.71448242 887.24511719 1551.00854492 C883.2596309 1561.96863222 875.46459835 1571.81987322 868.99511719 1581.44604492 C866.56417284 1585.06511953 864.18301694 1588.70906692 861.85009766 1592.39208984 C858.07268414 1598.34531357 854.12781667 1604.09919682 849.91699219 1609.75854492 C847.22305732 1613.52567335 844.82645312 1617.4590561 842.44042969 1621.42651367 C841.96347656 1622.09295898 841.48652344 1622.7594043 840.99511719 1623.44604492 C840.33511719 1623.44604492 839.67511719 1623.44604492 838.99511719 1623.44604492 C838.74503906 1624.16920898 838.49496094 1624.89237305 838.23730469 1625.63745117 C836.88578653 1628.69324223 835.26129207 1630.82625493 833.12011719 1633.38354492 C830.15419633 1636.94152223 827.55928122 1640.59001199 824.99511719 1644.44604492 C823.39008072 1646.57067794 821.77273595 1648.67195743 820.12011719 1650.75854492 C819.65323486 1651.35103027 819.18635254 1651.94351562 818.70532227 1652.55395508 C814.20162064 1658.24075154 809.58745944 1663.83613102 804.94287109 1669.40820312 C801.55012607 1673.49315459 798.33500787 1677.64534161 795.26782227 1681.98168945 C794.63783325 1682.70654541 794.63783325 1682.70654541 793.99511719 1683.44604492 C793.33511719 1683.44604492 792.67511719 1683.44604492 791.99511719 1683.44604492 C791.76824219 1684.16791992 791.54136719 1684.88979492 791.30761719 1685.63354492 C790.03989202 1688.35009885 788.73439229 1689.83376796 786.56152344 1691.84448242 C783.67593046 1694.79483933 781.2661269 1698.15801116 778.76464844 1701.43432617 C778.18070313 1702.09819336 777.59675781 1702.76206055 776.99511719 1703.44604492 C776.33511719 1703.44604492 775.67511719 1703.44604492 774.99511719 1703.44604492 C774.7339209 1704.02942627 774.47272461 1704.61280762 774.20361328 1705.21386719 C772.92219054 1707.58074559 771.51941742 1709.22198165 769.65917969 1711.16088867 C768.68078125 1712.19052734 768.68078125 1712.19052734 767.68261719 1713.2409668 C767.00199219 1713.94801758 766.32136719 1714.65506836 765.62011719 1715.38354492 C764.2772596 1716.78685682 762.93606907 1718.19176616 761.59667969 1719.59838867 C760.96793945 1720.25822754 760.33919922 1720.91806641 759.69140625 1721.59790039 C758.26716161 1723.1496465 756.94190115 1724.79143218 755.64355469 1726.44995117 C754.82757812 1727.43801758 754.82757812 1727.43801758 753.99511719 1728.44604492 C753.33511719 1728.44604492 752.67511719 1728.44604492 751.99511719 1728.44604492 C751.59292969 1729.40510742 751.59292969 1729.40510742 751.18261719 1730.38354492 C749.99511719 1732.44604492 749.99511719 1732.44604492 746.99511719 1733.44604492 C746.66511719 1734.10604492 746.33511719 1734.76604492 745.99511719 1735.44604492 C745.66511719 1736.10604492 745.33511719 1736.76604492 744.99511719 1737.44604492 C744.00511719 1737.77604492 743.01511719 1738.10604492 741.99511719 1738.44604492 C741.66511719 1739.10604492 741.33511719 1739.76604492 740.99511719 1740.44604492 C740.66511719 1741.10604492 740.33511719 1741.76604492 739.99511719 1742.44604492 C739.00511719 1742.77604492 738.01511719 1743.10604492 736.99511719 1743.44604492 C736.87136719 1744.02354492 736.74761719 1744.60104492 736.62011719 1745.19604492 C735.67642028 1748.59335379 733.62372183 1750.18422233 730.99511719 1752.44604492 C729.66405097 1752.78831909 728.3311164 1753.12356235 726.99511719 1753.44604492 C726.29574187 1754.76251611 725.62782585 1756.09626643 724.99511719 1757.44604492 C724.00511719 1757.77604492 723.01511719 1758.10604492 721.99511719 1758.44604492 C721.66511719 1759.10604492 721.33511719 1759.76604492 720.99511719 1760.44604492 C720.66511719 1761.10604492 720.33511719 1761.76604492 719.99511719 1762.44604492 C719.00511719 1762.77604492 718.01511719 1763.10604492 716.99511719 1763.44604492 C716.66511719 1764.10604492 716.33511719 1764.76604492 715.99511719 1765.44604492 C715.66511719 1766.10604492 715.33511719 1766.76604492 714.99511719 1767.44604492 C714.00511719 1767.77604492 713.01511719 1768.10604492 711.99511719 1768.44604492 C711.32384491 1769.77706549 710.65797978 1771.11081633 709.99511719 1772.44604492 C707.99902344 1774.45385742 707.99902344 1774.45385742 705.55761719 1776.57104492 C702.66281624 1779.10346904 699.77441349 1781.63329059 696.95996094 1784.25463867 C696.46488037 1784.71402832 695.9697998 1785.17341797 695.4597168 1785.64672852 C694.05328727 1786.95445712 692.6491519 1788.26465173 691.24511719 1789.57495117 C688.99511719 1791.44604492 688.99511719 1791.44604492 686.99511719 1791.44604492 C686.99511719 1792.10604492 686.99511719 1792.76604492 686.99511719 1793.44604492 C685.36078964 1794.9237371 683.66035351 1796.32873812 681.93261719 1797.69604492 C678.53591087 1800.40553102 675.18198071 1803.12404637 671.93261719 1806.00854492 C668.99511719 1808.44604492 668.99511719 1808.44604492 666.99511719 1808.44604492 C666.66511719 1809.43604492 666.33511719 1810.42604492 665.99511719 1811.44604492 C664.00947618 1813.15996664 662.0251085 1814.74779413 659.93261719 1816.32104492 C658.6555267 1817.30145106 657.37952853 1818.28328131 656.10449219 1819.26635742 C655.43353516 1819.78230469 654.76257812 1820.29825195 654.07128906 1820.82983398 C650.56208739 1823.56159728 647.12477821 1826.38062045 643.68261719 1829.19604492 C629.29387654 1840.92508497 629.29387654 1840.92508497 624.14355469 1844.33276367 C619.81548181 1847.23783492 615.73101201 1850.43577777 611.60449219 1853.61791992 C608.99511719 1855.44604492 608.99511719 1855.44604492 606.99511719 1855.44604492 C606.99511719 1856.10604492 606.99511719 1856.76604492 606.99511719 1857.44604492 C604.97558594 1858.89135742 604.97558594 1858.89135742 602.18261719 1860.57104492 C598.2230748 1863.0154563 594.41580149 1865.54337803 590.68261719 1868.32104492 C585.95637409 1871.81171304 581.09535133 1875.00324421 576.13671875 1878.1472168 C571.72444921 1880.95214216 567.42750159 1883.88970672 563.17871094 1886.93823242 C560.84113312 1888.55237382 558.43730739 1889.99564494 555.99511719 1891.44604492 C554.20032763 1892.58698047 552.40874812 1893.7329786 550.62011719 1894.88354492 C538.65336833 1902.49728849 538.65336833 1902.49728849 531.99511719 1904.44604492 C531.99511719 1905.10604492 531.99511719 1905.76604492 531.99511719 1906.44604492 C531.31707031 1906.80956055 530.63902344 1907.17307617 529.94042969 1907.54760742 C525.24705511 1910.08280975 520.60270811 1912.65247684 516.05761719 1915.44604492 C511.40291913 1918.28192157 506.58258806 1920.67110714 501.69042969 1923.06713867 C498.59097242 1924.65280304 495.85607893 1926.47061895 492.99511719 1928.44604492 C491.00497656 1929.46552533 489.00315042 1930.46227538 486.99511719 1931.44604492 C479.51897378 1935.14644289 472.05746354 1938.85148871 464.71655273 1942.81518555 C456.74999966 1947.11250403 448.66256646 1950.92537489 440.36230469 1954.53198242 C436.20129678 1956.34103628 432.09544056 1958.25414433 427.99511719 1960.19604492 C423.22851094 1962.4459079 418.43137272 1964.51887239 413.51464844 1966.41870117 C410.47648224 1967.65751933 407.5255416 1969.04752825 404.55761719 1970.44604492 C399.68453111 1972.72281465 394.80364171 1974.67937161 389.72949219 1976.45385742 C386.83485217 1977.50419823 384.01549803 1978.67694753 381.18261719 1979.88354492 C373.76341332 1983.00892017 366.18491835 1985.64432245 358.58300781 1988.28344727 C355.9699774 1989.19066682 353.35743425 1990.0992734 350.74511719 1991.00854492 C349.4416333 1991.46136841 349.4416333 1991.46136841 348.11181641 1991.92333984 C343.90100608 1993.39490299 339.73544692 1994.90863774 335.62011719 1996.63354492 C330.77515785 1998.63251416 325.79139505 1999.98993672 320.74511719 2001.38745117 C316.93066083 2002.46424041 313.14853883 2003.62574805 309.37011719 2004.82104492 C295.66910427 2009.13179797 282.03664841 2013.37563009 267.99511719 2016.44604492 C260.39333753 2018.27047204 252.84962111 2020.28451073 245.31933594 2022.38354492 C240.9504657 2023.51552201 236.52726586 2024.36167942 232.10003662 2025.23143005 C227.32345799 2026.17211557 222.56150962 2027.16866154 217.80371094 2028.19995117 C217.11671616 2028.34814301 216.42972137 2028.49633484 215.72190857 2028.64901733 C212.92277808 2029.25288947 210.12380867 2029.8573593 207.32641602 2030.46923828 C198.91718243 2032.30573757 190.55994281 2033.88696726 182.02172852 2035.03222656 C178.3581734 2035.5331321 174.75231338 2036.19225597 171.12011719 2036.88354492 C162.97936343 2038.38088271 154.79575825 2039.40165777 146.57958984 2040.38891602 C141.52939909 2040.99718879 136.51023229 2041.65034341 131.49511719 2042.50854492 C123.81039851 2043.73088609 116.06723159 2044.25948072 108.31347656 2044.84838867 C103.46477604 2045.22820633 98.63087382 2045.68098723 93.79418945 2046.19067383 C67.87815874 2048.80568401 42.02008208 2048.94235024 15.99023438 2048.89208984 C11.0076412 2048.88292202 6.02551776 2048.88979591 1.04296875 2048.91259766 C-29.102087 2049.04990823 -58.77519993 2048.20621975 -88.74867249 2044.89994812 C-94.51176111 2044.27137512 -100.28723803 2043.82215301 -106.06738281 2043.38354492 C-114.29376045 2042.69525157 -122.37850819 2041.53615982 -130.51660156 2040.16479492 C-134.89467272 2039.4381127 -139.28109157 2038.92261381 -143.69238281 2038.44604492 C-150.48482522 2037.70132185 -157.1346818 2036.57281019 -163.83300781 2035.22729492 C-167.24802058 2034.55726898 -170.67574393 2034.03786173 -174.11816406 2033.52807617 C-181.11314984 2032.46762065 -188.02023579 2031.08940634 -194.94238281 2029.63354492 C-196.20219971 2029.3707373 -197.4620166 2029.10792969 -198.76000977 2028.8371582 C-208.18541339 2026.85858168 -217.58308945 2024.77342543 -226.96582031 2022.60229492 C-230.32007114 2021.8267456 -233.67837533 2021.07714651 -237.04394531 2020.35229492 C-250.80680065 2017.38432451 -250.80680065 2017.38432451 -256.92114258 2015.14086914 C-258.9782131 2014.45493795 -260.98706873 2013.981932 -263.11035156 2013.54760742 C-268.24067287 2012.43599407 -273.23493247 2010.97319849 -278.25488281 2009.44604492 C-279.12628906 2009.1856543 -279.99769531 2008.92526367 -280.89550781 2008.65698242 C-287.41294582 2006.68982888 -287.41294582 2006.68982888 -290.45019531 2005.43896484 C-293.09369088 2004.41152825 -295.66319855 2003.75316066 -298.42675781 2003.12182617 C-305.52689762 2001.39021715 -312.36387713 1999.05331865 -319.25488281 1996.63354492 C-320.54387376 1996.18452761 -321.83293693 1995.73571758 -323.12207031 1995.28710938 C-332.13611197 1992.1413081 -341.09892534 1988.88580213 -350.00488281 1985.44604492 C-351.09929688 1985.02967773 -352.19371094 1984.61331055 -353.32128906 1984.18432617 C-360.41187844 1981.47949244 -367.46354073 1978.68217248 -374.50488281 1975.85229492 C-377.39828753 1974.68976624 -380.29464758 1973.53520892 -383.19238281 1972.38354492 C-390.88793397 1969.2977051 -398.54118808 1966.15715919 -406.05566406 1962.64916992 C-411.66916328 1960.04716013 -417.31774433 1957.53811845 -422.98608398 1955.05834961 C-432.71741097 1950.79367484 -442.2976549 1946.4581102 -451.59472656 1941.31323242 C-455.43373494 1939.21123242 -459.33118915 1937.2585865 -463.25488281 1935.32104492 C-469.59252032 1932.18031584 -475.8261098 1928.89076023 -482.00488281 1925.44604492 C-482.77058594 1925.02709961 -483.53628906 1924.6081543 -484.32519531 1924.17651367 C-488.21536608 1922.04166386 -492.03413269 1919.82789412 -495.81738281 1917.50854492 C-500.55841072 1914.63271765 -505.45121788 1912.16177289 -510.43847656 1909.74291992 C-513.00488281 1908.44604492 -513.00488281 1908.44604492 -516.00488281 1906.44604492 C-516.00488281 1905.78604492 -516.00488281 1905.12604492 -516.00488281 1904.44604492 C-517.27332031 1904.07479492 -517.27332031 1904.07479492 -518.56738281 1903.69604492 C-529.52747012 1899.71055863 -539.37871111 1891.91552608 -549.00488281 1885.44604492 C-552.62395742 1883.01510058 -556.26790481 1880.63394468 -559.95092773 1878.30102539 C-565.90415146 1874.52361188 -571.65803471 1870.5787444 -577.31738281 1866.36791992 C-581.08451124 1863.67398506 -585.01789399 1861.27738086 -588.98535156 1858.89135742 C-589.65179687 1858.4144043 -590.31824219 1857.93745117 -591.00488281 1857.44604492 C-591.00488281 1856.78604492 -591.00488281 1856.12604492 -591.00488281 1855.44604492 C-591.72804688 1855.1959668 -592.45121094 1854.94588867 -593.19628906 1854.68823242 C-596.25208012 1853.33671426 -598.38509282 1851.7122198 -600.94238281 1849.57104492 C-604.50005255 1846.60538045 -608.14348944 1844.00224793 -612.00488281 1841.44604492 C-619.26982868 1836.09041465 -626.26201415 1830.4601131 -633.09960938 1824.57299805 C-637.60014346 1820.72165847 -642.26685331 1817.11967967 -647.04394531 1813.61791992 C-648.39914103 1812.60572659 -649.70737176 1811.53119737 -651.00488281 1810.44604492 C-651.00488281 1809.78604492 -651.00488281 1809.12604492 -651.00488281 1808.44604492 C-651.72675781 1808.21916992 -652.44863281 1807.99229492 -653.19238281 1807.75854492 C-655.90893674 1806.49081976 -657.39260585 1805.18532003 -659.40332031 1803.01245117 C-662.35367722 1800.12685819 -665.71684905 1797.71705464 -668.99316406 1795.21557617 C-669.65703125 1794.63163086 -670.32089844 1794.04768555 -671.00488281 1793.44604492 C-671.00488281 1792.78604492 -671.00488281 1792.12604492 -671.00488281 1791.44604492 C-671.58826416 1791.18484863 -672.17164551 1790.92365234 -672.77270508 1790.65454102 C-675.13958348 1789.37311828 -676.78081954 1787.97034515 -678.71972656 1786.11010742 C-679.40615234 1785.4578418 -680.09257813 1784.80557617 -680.79980469 1784.13354492 C-681.50685547 1783.45291992 -682.21390625 1782.77229492 -682.94238281 1782.07104492 C-684.34569472 1780.72818734 -685.75060405 1779.3869968 -687.15722656 1778.04760742 C-687.81706543 1777.41886719 -688.4769043 1776.79012695 -689.15673828 1776.14233398 C-690.70848439 1774.71808934 -692.35027007 1773.39282889 -694.00878906 1772.09448242 C-694.99685547 1771.27850586 -694.99685547 1771.27850586 -696.00488281 1770.44604492 C-696.00488281 1769.78604492 -696.00488281 1769.12604492 -696.00488281 1768.44604492 C-696.64425781 1768.17791992 -697.28363281 1767.90979492 -697.94238281 1767.63354492 C-700.00488281 1766.44604492 -700.00488281 1766.44604492 -701.00488281 1763.44604492 C-701.66488281 1763.11604492 -702.32488281 1762.78604492 -703.00488281 1762.44604492 C-705.00488281 1761.44604492 -705.00488281 1761.44604492 -706.00488281 1758.44604492 C-706.66488281 1758.11604492 -707.32488281 1757.78604492 -708.00488281 1757.44604492 C-710.00488281 1756.44604492 -710.00488281 1756.44604492 -711.00488281 1753.44604492 C-711.58238281 1753.32229492 -712.15988281 1753.19854492 -712.75488281 1753.07104492 C-716.15219168 1752.12734801 -717.74306022 1750.07464956 -720.00488281 1747.44604492 C-720.34715698 1746.1149787 -720.68240025 1744.78204413 -721.00488281 1743.44604492 C-722.321354 1742.7466696 -723.65510432 1742.07875359 -725.00488281 1741.44604492 C-725.33488281 1740.45604492 -725.66488281 1739.46604492 -726.00488281 1738.44604492 C-726.66488281 1738.11604492 -727.32488281 1737.78604492 -728.00488281 1737.44604492 C-730.00488281 1736.44604492 -730.00488281 1736.44604492 -731.00488281 1733.44604492 C-731.66488281 1733.11604492 -732.32488281 1732.78604492 -733.00488281 1732.44604492 C-735.00488281 1731.44604492 -735.00488281 1731.44604492 -736.00488281 1728.44604492 C-737.33590338 1727.77477264 -738.66965422 1727.10890752 -740.00488281 1726.44604492 C-742.01269531 1724.44995117 -742.01269531 1724.44995117 -744.12988281 1722.00854492 C-746.66230693 1719.11374397 -749.19212848 1716.22534122 -751.81347656 1713.41088867 C-752.27286621 1712.91580811 -752.73225586 1712.42072754 -753.20556641 1711.91064453 C-754.51329501 1710.504215 -755.82348962 1709.10007964 -757.13378906 1707.69604492 C-759.00488281 1705.44604492 -759.00488281 1705.44604492 -759.00488281 1703.44604492 C-759.66488281 1703.44604492 -760.32488281 1703.44604492 -761.00488281 1703.44604492 C-762.48257499 1701.81171738 -763.88757601 1700.11128124 -765.25488281 1698.38354492 C-767.96436891 1694.9868386 -770.68288426 1691.63290845 -773.56738281 1688.38354492 C-776.00488281 1685.44604492 -776.00488281 1685.44604492 -776.00488281 1683.44604492 C-776.99488281 1683.11604492 -777.98488281 1682.78604492 -779.00488281 1682.44604492 C-780.75759114 1680.397271 -782.38997331 1678.3488777 -784.00488281 1676.19604492 C-787.79628439 1671.24354253 -791.67876537 1666.41684354 -795.75488281 1661.69604492 C-808.00488281 1647.4090734 -808.00488281 1647.4090734 -808.00488281 1643.44604492 C-808.99488281 1643.11604492 -809.98488281 1642.78604492 -811.00488281 1642.44604492 C-812.05369841 1640.80965756 -813.04433976 1639.13575934 -814.00488281 1637.44604492 C-815.95671954 1634.81999861 -817.93994519 1632.22329827 -819.95214844 1629.64331055 C-823.00488281 1625.65821395 -823.00488281 1625.65821395 -823.00488281 1623.44604492 C-823.66488281 1623.44604492 -824.32488281 1623.44604492 -825.00488281 1623.44604492 C-826.20030759 1621.7647948 -827.31201124 1620.02356409 -828.37988281 1618.25854492 C-830.71311084 1614.41951114 -833.19973273 1610.94968855 -836.00488281 1607.44604492 C-837.02080335 1605.78903459 -838.02113301 1604.12235459 -839.00488281 1602.44604492 C-840.1359926 1600.7900582 -841.28214123 1599.14425298 -842.44238281 1597.50854492 C-845.01836644 1593.85474388 -847.54321051 1590.17825776 -850.00488281 1586.44604492 C-850.48957031 1585.72416992 -850.97425781 1585.00229492 -851.47363281 1584.25854492 C-852.26253906 1583.08291992 -852.26253906 1583.08291992 -853.06738281 1581.88354492 C-853.55335938 1581.16038086 -854.03933594 1580.4372168 -854.54003906 1579.69213867 C-856.09237555 1577.31188939 -857.54563636 1574.88432661 -859.00488281 1572.44604492 C-860.72252183 1569.7440513 -862.45476977 1567.05181327 -864.18847656 1564.36010742 C-865.83683987 1561.7156364 -867.40063178 1559.03636281 -868.93579102 1556.32495117 C-870.88080673 1552.90662714 -872.8843186 1549.52252055 -874.87988281 1546.13354492 C-875.32114502 1545.38226318 -875.76240723 1544.63098145 -876.21704102 1543.85693359 C-878.50525658 1539.96684121 -880.82447277 1536.10081404 -883.19238281 1532.25854492 C-886.26476837 1527.18736308 -888.81805741 1521.88401393 -891.39160156 1516.54760742 C-892.83696479 1513.55399266 -892.83696479 1513.55399266 -894.46191406 1511.53198242 C-896.77417783 1508.40603596 -898.31982553 1504.93987051 -900.00488281 1501.44604492 C-900.62306099 1500.19394494 -901.24281076 1498.94261945 -901.86425781 1497.69213867 C-902.32445312 1496.76425537 -902.32445312 1496.76425537 -902.79394531 1495.81762695 C-905.4549565 1490.46180109 -908.14854474 1485.13747237 -911.01391602 1479.88769531 C-915.10696648 1472.38427365 -918.6443687 1464.7180747 -922.05566406 1456.88354492 C-923.87899991 1452.70033052 -925.80202452 1448.57003454 -927.75488281 1444.44604492 C-930.00471809 1439.67942371 -932.0777094 1434.88230272 -933.97753906 1429.96557617 C-935.21635722 1426.92740998 -936.60636614 1423.97646933 -938.00488281 1421.00854492 C-940.28165254 1416.13545884 -942.2382095 1411.25456945 -944.01269531 1406.18041992 C-945.06303612 1403.28577991 -946.23578542 1400.46642576 -947.44238281 1397.63354492 C-950.56775806 1390.21434106 -953.20316034 1382.63584609 -955.84228516 1375.03393555 C-956.74950471 1372.42090513 -957.65811129 1369.80836198 -958.56738281 1367.19604492 C-958.86926514 1366.32705566 -959.17114746 1365.45806641 -959.48217773 1364.56274414 C-960.95374088 1360.35193382 -962.46747563 1356.18637465 -964.19238281 1352.07104492 C-966.19135205 1347.22608558 -967.54877461 1342.24232279 -968.94628906 1337.19604492 C-970.02307702 1333.38159311 -971.18445076 1329.59942194 -972.37988281 1325.82104492 C-980.8138391 1299.04480045 -980.8138391 1299.04480045 -984.00488281 1285.44604492 C-984.35190113 1283.99927718 -984.69962007 1282.55267739 -985.04785156 1281.10620117 C-986.12665789 1276.61483508 -987.19151176 1272.12025992 -988.25292969 1267.62475586 C-988.77836435 1265.40360025 -989.3058761 1263.18293544 -989.83496094 1260.96264648 C-1000.03187104 1218.15615474 -1000.03187104 1218.15615474 -1002.54394531 1198.74682617 C-1003.08775504 1194.85259546 -1003.79304453 1190.99986364 -1004.50488281 1187.13354492 C-1005.66231745 1180.77910003 -1006.53618191 1174.43725194 -1007.23535156 1168.01733398 C-1007.74268977 1163.44089381 -1008.38283833 1158.90392032 -1009.11035156 1154.35742188 C-1010.69172698 1144.44153255 -1011.70430665 1134.55978767 -1012.43823242 1124.54736328 C-1012.80073577 1119.78451976 -1013.24316307 1115.03810126 -1013.7434082 1110.2878418 C-1016.36109999 1084.35702565 -1016.5012239 1058.4860477 -1016.45092773 1032.44116211 C-1016.44175991 1027.45856894 -1016.4486338 1022.47644549 -1016.47143555 1017.49389648 C-1016.60874612 987.34884074 -1015.76505764 957.67572781 -1012.45878601 927.70225525 C-1011.83021301 921.93916662 -1011.3809909 916.16368971 -1010.94238281 910.38354492 C-1010.25408946 902.15716728 -1009.09499771 894.07241955 -1007.72363281 885.93432617 C-1006.99695059 881.55625502 -1006.4814517 877.16983617 -1006.00488281 872.75854492 C-1005.26015974 865.96610251 -1004.13164808 859.31624594 -1002.78613281 852.61791992 C-1002.11610688 849.20290715 -1001.59669962 845.77518381 -1001.08691406 842.33276367 C-1000.02645854 835.3377779 -998.64824423 828.43069194 -997.19238281 821.50854492 C-996.9295752 820.24872803 -996.66676758 818.98891113 -996.39599609 817.69091797 C-994.41741957 808.26551435 -992.33226332 798.86783828 -990.16113281 789.48510742 C-989.38558349 786.1308566 -988.6359844 782.77255241 -987.91113281 779.40698242 C-984.9431624 765.64412709 -984.9431624 765.64412709 -982.69970703 759.52978516 C-982.01377584 757.47271463 -981.5407699 755.46385901 -981.10644531 753.34057617 C-979.99483196 748.21025486 -978.53203638 743.21599527 -977.00488281 738.19604492 C-976.74449219 737.32463867 -976.48410156 736.45323242 -976.21582031 735.55541992 C-974.24866677 729.03798191 -974.24866677 729.03798191 -972.99780273 726.00073242 C-971.97036614 723.35723685 -971.31199855 720.78772918 -970.68066406 718.02416992 C-968.94905504 710.92403012 -966.61215654 704.08705061 -964.19238281 697.19604492 C-963.7433655 695.90705398 -963.29455547 694.6179908 -962.84594727 693.32885742 C-959.70014599 684.31481576 -956.44464002 675.35200239 -953.00488281 666.44604492 C-952.58851563 665.35163086 -952.17214844 664.2572168 -951.74316406 663.12963867 C-949.03833033 656.03904929 -946.24101037 648.987387 -943.41113281 641.94604492 C-942.24860413 639.05264021 -941.09404682 636.15628016 -939.94238281 633.25854492 C-936.3561476 624.31509414 -932.61885827 615.47478476 -928.53222656 606.74682617 C-925.98972665 601.25216523 -923.54994482 595.71329358 -921.14550781 590.15698242 C-917.43713056 581.62420892 -913.47576311 573.34443524 -909.01660156 565.18041992 C-906.84653052 561.19470508 -904.8282609 557.13882638 -902.81738281 553.07104492 C-900.39019115 548.17421191 -897.91366404 543.33176875 -895.21191406 538.57885742 C-893.79446423 536.07423732 -892.43283593 533.54186621 -891.06738281 531.00854492 C-888.60325406 526.47403996 -885.98482042 522.05514119 -883.30566406 517.64526367 C-882.30350179 515.95091725 -881.38523945 514.20675819 -880.50488281 512.44604492 C-877.40983276 506.25594482 -873.69780181 500.42014558 -869.81738281 494.69604492 C-868.19442893 492.29726036 -866.80404388 490.04436705 -865.50488281 487.44604492 C-863.86060376 484.15748682 -861.897611 481.26562483 -859.82519531 478.23510742 C-858.3825619 476.0247206 -857.01951587 473.80693854 -855.68457031 471.53198242 C-855.28318848 470.84869873 -854.88180664 470.16541504 -854.46826172 469.46142578 C-853.66486577 468.08563042 -852.86756314 466.70625716 -852.07666016 465.32324219 C-851.10655463 463.66483175 -850.0618366 462.05050078 -849.00488281 460.44604492 C-848.34488281 460.44604492 -847.68488281 460.44604492 -847.00488281 460.44604492 C-846.72515625 459.69967773 -846.44542969 458.95331055 -846.15722656 458.18432617 C-845.13005992 455.74349968 -844.0583995 453.80591641 -842.56738281 451.63354492 C-842.04660156 450.86913086 -841.52582031 450.1047168 -840.98925781 449.31713867 C-840.33441406 448.36967773 -839.67957031 447.4222168 -839.00488281 446.44604492 C-837.60240516 444.41308125 -836.20057578 442.37967495 -834.79956055 440.34570312 C-833.82710364 438.93531223 -832.85272012 437.52624738 -831.8762207 436.11865234 C-829.90815084 433.27163866 -828.01791316 430.46882566 -826.29785156 427.46166992 C-825.87117187 426.79651367 -825.44449219 426.13135742 -825.00488281 425.44604492 C-824.34488281 425.44604492 -823.68488281 425.44604492 -823.00488281 425.44604492 C-822.75609375 424.72416992 -822.50730469 424.00229492 -822.25097656 423.25854492 C-820.88572271 420.17709423 -819.2299154 418.02336496 -817.06738281 415.44604492 C-814.9341453 412.89413463 -813.04494918 410.51522426 -811.37597656 407.63354492 C-810.92351562 406.91166992 -810.47105469 406.18979492 -810.00488281 405.44604492 C-809.34488281 405.44604492 -808.68488281 405.44604492 -808.00488281 405.44604492 C-807.68970703 404.43477539 -807.68970703 404.43477539 -807.36816406 403.40307617 C-805.54548685 399.44959007 -802.97743664 396.45423291 -800.19238281 393.13354492 C-799.02297651 391.71699008 -797.85370996 390.30031985 -796.68457031 388.88354492 C-796.0809668 388.15651367 -795.47736328 387.42948242 -794.85546875 386.68041992 C-791.82060564 383.01616304 -788.81914737 379.32492126 -785.81738281 375.63354492 C-784.98920044 374.62070435 -784.98920044 374.62070435 -784.14428711 373.58740234 C-783.630354 372.95680908 -783.1164209 372.32621582 -782.58691406 371.67651367 C-782.13550049 371.12374756 -781.68408691 370.57098145 -781.21899414 370.00146484 C-780.07551066 368.53652753 -779.03572949 366.99231493 -778.00488281 365.44604492 C-777.34488281 365.44604492 -776.68488281 365.44604492 -776.00488281 365.44604492 C-775.66457031 364.36323242 -775.66457031 364.36323242 -775.31738281 363.25854492 C-774.04696433 360.53621961 -772.72927348 359.05013682 -770.55957031 357.02807617 C-767.80147713 354.22147382 -765.47519482 351.05289913 -763.06738281 347.94604492 C-760.85598122 345.26555815 -758.47818015 342.88703504 -756.00488281 340.44604492 C-753.63032424 337.96505763 -751.28603108 335.45620902 -748.94238281 332.94604492 C-748.33072266 332.29506836 -747.7190625 331.6440918 -747.08886719 330.97338867 C-744.50291139 328.20571706 -742.02381964 325.47039684 -739.69628906 322.47729492 C-739.138125 321.80698242 -738.57996094 321.13666992 -738.00488281 320.44604492 C-737.34488281 320.44604492 -736.68488281 320.44604492 -736.00488281 320.44604492 C-735.73675781 319.80666992 -735.46863281 319.16729492 -735.19238281 318.50854492 C-734.00488281 316.44604492 -734.00488281 316.44604492 -731.00488281 315.44604492 C-730.67488281 314.78604492 -730.34488281 314.12604492 -730.00488281 313.44604492 C-729.00488281 311.44604492 -729.00488281 311.44604492 -726.00488281 310.44604492 C-725.67488281 309.78604492 -725.34488281 309.12604492 -725.00488281 308.44604492 C-724.00488281 306.44604492 -724.00488281 306.44604492 -721.00488281 305.44604492 C-720.73675781 304.70354492 -720.46863281 303.96104492 -720.19238281 303.19604492 C-718.53481174 299.35745928 -716.37250361 297.90160175 -713.00488281 295.44604492 C-712.34488281 295.44604492 -711.68488281 295.44604492 -711.00488281 295.44604492 C-710.73675781 294.80666992 -710.46863281 294.16729492 -710.19238281 293.50854492 C-709.00488281 291.44604492 -709.00488281 291.44604492 -706.00488281 290.44604492 C-705.67488281 289.78604492 -705.34488281 289.12604492 -705.00488281 288.44604492 C-704.00488281 286.44604492 -704.00488281 286.44604492 -701.00488281 285.44604492 C-700.67488281 284.78604492 -700.34488281 284.12604492 -700.00488281 283.44604492 C-699.00488281 281.44604492 -699.00488281 281.44604492 -696.00488281 280.44604492 C-695.33475221 279.11444919 -694.66870302 277.78079769 -694.00488281 276.44604492 C-691.97363281 274.40307617 -691.97363281 274.40307617 -689.50488281 272.25854492 C-688.61027344 271.47350586 -687.71566406 270.6884668 -686.79394531 269.87963867 C-685.87355469 269.07655273 -684.95316406 268.2734668 -684.00488281 267.44604492 C-682.29396525 265.90724669 -680.58555507 264.36565524 -678.87988281 262.82104492 C-677.25581965 261.36166835 -675.63087257 259.90327463 -674.00488281 258.44604492 C-673.31523438 257.82729492 -672.62558594 257.20854492 -671.91503906 256.57104492 C-667.77237905 252.89597228 -663.50597108 249.45495856 -659.08300781 246.12182617 C-656.91575974 244.44376205 -656.91575974 244.44376205 -654.86425781 242.23901367 C-653.00488281 240.44604492 -653.00488281 240.44604492 -651.00488281 240.44604492 C-650.67488281 239.45604492 -650.34488281 238.46604492 -650.00488281 237.44604492 C-648.01924782 235.7321284 -646.03493753 234.14420322 -643.94238281 232.57104492 C-642.66785293 231.59330057 -641.39446136 230.61407103 -640.12207031 229.63354492 C-639.45143555 229.11791992 -638.78080078 228.60229492 -638.08984375 228.07104492 C-633.86313167 224.77678315 -629.73605755 221.35777235 -625.6003418 217.95043945 C-613.99295486 208.44604492 -613.99295486 208.44604492 -611.00488281 208.44604492 C-610.67488281 207.45604492 -610.34488281 206.46604492 -610.00488281 205.44604492 C-608.36849545 204.39722932 -606.69459723 203.40658797 -605.00488281 202.44604492 C-602.3788365 200.49420819 -599.78213616 198.51098254 -597.20214844 196.4987793 C-593.21705184 193.44604492 -593.21705184 193.44604492 -591.00488281 193.44604492 C-591.00488281 192.78604492 -591.00488281 192.12604492 -591.00488281 191.44604492 C-588.98535156 190.00073242 -588.98535156 190.00073242 -586.19238281 188.32104492 C-582.16920284 185.83810926 -578.30213354 183.2624762 -574.50488281 180.44604492 C-559.57324219 169.44604492 -559.57324219 169.44604492 -556.00488281 169.44604492 C-556.00488281 168.78604492 -556.00488281 168.12604492 -556.00488281 167.44604492 C-553.77441406 165.82495117 -553.77441406 165.82495117 -550.81738281 164.00854492 C-549.85445312 163.41170898 -548.89152344 162.81487305 -547.89941406 162.19995117 C-546.09559993 161.10695179 -544.28880722 160.01883445 -542.47753906 158.93823242 C-538.91099167 156.7859084 -535.42082086 154.51798197 -531.91894531 152.26245117 C-529.25188592 150.60000798 -526.54709011 149.02767598 -523.8125 147.47949219 C-520.78386487 145.747967 -517.803684 143.93675834 -514.81738281 142.13354492 C-512.83581113 140.94337796 -510.85350903 139.754435 -508.87109375 138.56567383 C-507.19871528 137.56233426 -505.52750326 136.55705102 -503.85644531 135.55151367 C-497.38842856 131.71058684 -490.80772676 128.28795619 -484.03613281 125.02416992 C-481.42296179 123.6637046 -479.34153253 122.20780463 -477.00488281 120.44604492 C-475.02350697 119.40963294 -473.02082628 118.41350135 -471.00488281 117.44604492 C-463.52873941 113.74564695 -456.06722916 110.04060113 -448.72631836 106.0769043 C-440.75976529 101.77958581 -432.67233209 97.96671496 -424.37207031 94.36010742 C-420.21106241 92.55105357 -416.10520618 90.63794552 -412.00488281 88.69604492 C-407.2307488 86.4426288 -402.42636903 84.36617918 -397.50097656 82.46557617 C-394.59059591 81.27682914 -391.77831993 79.9276675 -388.94238281 78.57104492 C-383.13801349 75.85089078 -377.25086314 73.65946554 -371.18041992 71.6262207 C-367.55603195 70.40084274 -364.05914527 69.05827856 -360.57519531 67.47338867 C-356.01422349 65.40431261 -351.36957886 63.74238469 -346.62988281 62.13354492 C-339.84735361 59.798607 -333.10007721 57.39212018 -326.37988281 54.88354492 C-320.07615513 52.54358442 -313.75142556 50.28249131 -307.37988281 48.13354492 C-306.67009277 47.89112061 -305.96030273 47.64869629 -305.22900391 47.39892578 C-300.93031064 45.96754485 -296.64454554 44.89001466 -292.21435547 43.94873047 C-288.74923723 43.16036821 -285.385835 42.09615897 -282.00488281 41.00854492 C-281.3077417 40.78827637 -280.61060059 40.56800781 -279.89233398 40.34106445 C-276.34920177 39.2168768 -272.8264039 38.04693214 -269.31738281 36.82104492 C-263.66309548 34.91124768 -257.82643554 33.72853232 -252.00488281 32.44604492 C-245.3141025 30.9654974 -238.70282525 29.3905712 -232.12988281 27.44604492 C-227.46776096 26.0857775 -222.83992959 24.95647286 -218.07128906 24.03979492 C-212.70873832 22.99373861 -207.36224767 21.89295864 -202.02441406 20.72729492 C-188.36278463 17.7560652 -174.75860215 14.88047512 -160.89550781 12.99291992 C-157.82528824 12.56136295 -154.84286799 12.04474367 -151.81738281 11.38354492 C-146.91908505 10.34244331 -141.9721316 9.81599542 -137.00048828 9.26611328 C-132.16318901 8.72347088 -127.35551081 8.06784631 -122.54296875 7.33837891 C-112.40605635 5.80908692 -102.29737658 4.76631241 -92.07495117 4.01269531 C-87.32469719 3.6493505 -82.59061004 3.20658709 -77.8527832 2.70751953 C-51.91993 0.09003102 -26.04689135 -0.05030005 0 0 Z " fill="#FECB4C" transform="translate(1016.0048828125,-0.446044921875)"/>
<path d="M0 0 C1.38980072 -0.01457748 1.38980072 -0.01457748 2.80767822 -0.02944946 C5.46969959 -0.0532265 8.13086142 -0.05533919 10.79296875 -0.05078125 C11.58457901 -0.05988525 12.37618927 -0.06898926 13.19178772 -0.07836914 C18.70054034 -0.03364682 22.74526022 1.13965502 27.8125 3.3125 C29.28976562 3.91578125 29.28976562 3.91578125 30.796875 4.53125 C44.50760176 10.88311212 55.79818263 21.8490423 61.1875 36.125 C65.93078591 50.08675896 65.74433662 67.54354084 59.26831055 80.83300781 C53.25651067 92.51933564 45.54997836 101.12496511 33.8125 107.3125 C32.63554565 107.93922607 32.63554565 107.93922607 31.43481445 108.57861328 C24.49169821 112.03739572 18.45163016 113.19139517 10.75 113.5625 C9.65945313 113.63275391 8.56890625 113.70300781 7.4453125 113.77539062 C4.23516798 113.97720347 1.02485955 114.15021293 -2.1875 114.3125 C-3.86328808 114.40091237 -5.53906999 114.48944167 -7.21484375 114.578125 C-9.42956435 114.69473914 -11.64424429 114.81038 -13.859375 114.91894531 C-19.48430061 115.21458811 -25.03847387 115.83166406 -30.62295532 116.55514526 C-35.40229257 117.15404476 -40.13746473 117.4902254 -44.953125 117.6953125 C-53.98787586 118.16173837 -62.85705493 119.3986454 -71.79077148 120.78662109 C-74.38198714 121.18858388 -76.97491145 121.57757246 -79.56835938 121.96484375 C-88.17528812 123.26716858 -96.67664117 124.75685294 -105.17358398 126.65625 C-110.036878 127.71518352 -114.93950243 128.46383458 -119.85742188 129.21679688 C-124.42826657 129.94277842 -128.73343429 131.02813938 -133.1875 132.3125 C-135.63765695 132.83833635 -138.094594 133.31737241 -140.5546875 133.79443359 C-160.22055129 137.66414455 -179.37024396 143.08611941 -198.5 149 C-199.14236603 149.19831421 -199.78473206 149.39662842 -200.44656372 149.60095215 C-202.29462107 150.17273661 -204.14147195 150.74841597 -205.98828125 151.32421875 C-207.06247314 151.65897217 -208.13666504 151.99372559 -209.2434082 152.33862305 C-211.94199477 153.23128926 -214.56253308 154.22435065 -217.1875 155.3125 C-215.12923902 158.93865257 -212.83780241 162.0266667 -210.125 165.1875 C-194.33894867 184.34532928 -181.07177871 208.20490099 -174.7578125 232.3046875 C-174.20102059 234.41381745 -174.20102059 234.41381745 -173.17578125 236.74609375 C-171.8663427 240.14649346 -171.40171662 243.51752444 -170.84765625 247.10546875 C-170.29432114 249.79356418 -169.59073418 252.25621793 -168.7578125 254.86328125 C-163.15437374 273.25068476 -162.80297241 293.05797158 -162.8125 312.125 C-162.80991684 313.44455688 -162.80991684 313.44455688 -162.80728149 314.79077148 C-162.8098664 326.44191386 -163.57518993 337.77648181 -165.1875 349.3125 C-165.31833984 350.31498779 -165.44917969 351.31747559 -165.58398438 352.3503418 C-167.85415897 369.53042707 -167.85415897 369.53042707 -170.46142578 377.05249023 C-171.14951738 379.19427366 -171.63647013 381.28432189 -172.078125 383.48828125 C-173.14707656 388.40566004 -174.68389298 393.07777604 -176.375 397.8125 C-176.68252197 398.67762207 -176.99004395 399.54274414 -177.30688477 400.43408203 C-182.21993017 414.10353303 -187.57903327 426.90903535 -195.1875 439.3125 C-195.76371094 440.26640625 -196.33992188 441.2203125 -196.93359375 442.203125 C-203.65887389 453.07540236 -211.40331054 463.0338363 -220.1875 472.3125 C-221.00734375 473.19679688 -221.8271875 474.08109375 -222.671875 474.9921875 C-235.94361423 488.85290924 -253.65410764 501.66047254 -272.1875 507.3125 C-273.39535156 507.68246094 -274.60320312 508.05242187 -275.84765625 508.43359375 C-304.83732117 516.43662433 -334.68455229 511.30657097 -360.5625 496.9375 C-385.03663633 481.89752795 -404.78622539 459.5791728 -418.1875 434.3125 C-418.92174636 432.97967957 -419.65751583 431.64769746 -420.39453125 430.31640625 C-425.21922913 421.52601013 -429.09768063 412.88064065 -432.1875 403.3125 C-432.65858456 401.94562078 -433.13268123 400.57977691 -433.609375 399.21484375 C-439.74656215 381.51241526 -444.85689957 364.14925812 -445.9855957 345.36694336 C-446.1444054 343.27887052 -446.1444054 343.27887052 -446.69946289 341.15112305 C-447.40722408 337.03449505 -447.32990047 332.97411886 -447.3203125 328.8046875 C-447.32126923 327.88342072 -447.32222595 326.96215393 -447.32321167 326.01296997 C-447.32389108 324.06463554 -447.32205344 322.11629881 -447.31787109 320.16796875 C-447.31255622 317.21869673 -447.31780515 314.26957957 -447.32421875 311.3203125 C-447.33003454 293.03896539 -447.33003454 293.03896539 -446.1875 284.3125 C-448.04375 284.4053125 -448.04375 284.4053125 -449.9375 284.5 C-464.03833073 284.43379892 -476.89743698 278.3106246 -486.94140625 268.65234375 C-499.01167787 256.07826949 -504.57863253 242.05485406 -504.48828125 224.75634766 C-504.08821552 208.50724923 -497.39017994 196.72655126 -486.1875 185.3125 C-485.64464355 184.75594727 -485.10178711 184.19939453 -484.54248047 183.62597656 C-477.98389255 176.91680419 -471.36749283 170.35880975 -464.1875 164.3125 C-463.19878906 163.44625 -462.21007813 162.58 -461.19140625 161.6875 C-452.17077543 153.79920437 -442.7790817 146.4901831 -433.1875 139.3125 C-432.03193604 138.44141602 -432.03193604 138.44141602 -430.85302734 137.55273438 C-400.73108355 114.86363903 -368.02285702 95.90149219 -334.1875 79.3125 C-331.6869883 78.0504014 -329.18808601 76.78528378 -326.69140625 75.515625 C-323.67498632 74.06623757 -320.61957405 72.71696838 -317.55834961 71.36523438 C-315.35433309 70.38657932 -313.16032052 69.38896481 -310.96875 68.3828125 C-302.79368425 64.65534589 -294.61757055 61.28843438 -286.109375 58.39770508 C-281.20867308 56.71972228 -276.52909295 54.77601951 -271.875 52.48828125 C-268.96648581 51.21580629 -266.04168212 50.22114613 -263.02490234 49.23852539 C-260.22070956 48.3233384 -257.42431573 47.38639908 -254.62918091 46.44395447 C-251.81335887 45.49480404 -248.99587909 44.55061881 -246.1784668 43.60620117 C-244.7347407 43.12161531 -243.29137609 42.635951 -241.84838867 42.14916992 C-232.35865503 38.94910569 -222.84824618 35.96498614 -213.1875 33.3125 C-212.12990479 33.02076904 -211.07230957 32.72903809 -209.98266602 32.4284668 C-183.29324318 25.11677838 -156.52770756 18.23157315 -129.21582031 13.65527344 C-126.50512668 13.19718318 -123.79819341 12.71878384 -121.09130859 12.23876953 C-119.6604982 11.98504264 -118.2295188 11.73226137 -116.79818726 11.48149109 C-113.32508498 10.87198131 -109.855907 10.25027035 -106.39013672 9.59985352 C-94.91389633 7.47725939 -83.41019756 6.02949372 -71.8125 4.75 C-70.84274231 4.64233307 -69.87298462 4.53466614 -68.87384033 4.42373657 C-62.31395463 3.69830956 -55.75169467 2.99774804 -49.1875 2.3125 C-48.49470947 2.23926514 -47.80191895 2.16603027 -47.08813477 2.09057617 C-31.40659829 0.44170724 -15.75501266 0.0988359 0 0 Z " fill="#664500" transform="translate(1642.1875,796.6875)"/>
<path d="M0 0 C0.82347931 -0.00550873 1.64695862 -0.01101746 2.49539185 -0.01669312 C5.17939315 -0.028392 7.86287286 -0.0220439 10.546875 -0.01171875 C11.46994446 -0.01056061 12.39301392 -0.00940247 13.34405518 -0.00820923 C37.45364662 0.0512405 61.43798223 1.72365957 85.234375 5.68359375 C89.04022131 6.30061301 92.82045363 6.58962876 96.671875 6.80078125 C102.32667356 7.13418556 107.56324166 8.14038685 113.07421875 9.4140625 C118.56316513 10.62395479 124.12039543 11.43533207 129.671875 12.30078125 C143.00883355 14.39499812 156.22050664 16.72272601 169.34985352 19.88842773 C173.13223543 20.80026373 176.9105843 21.64519849 180.734375 22.36328125 C183.91705415 22.97307188 186.95466891 23.76915688 190.046875 24.73828125 C195.22045515 26.35198415 200.46018277 27.44316982 205.76171875 28.55078125 C213.63280264 30.22066866 220.90215222 32.11340074 228.296875 35.30078125 C230.39213809 35.92141689 232.4947899 36.51728977 234.6015625 37.09765625 C242.15530248 39.22893527 249.60371963 41.62177582 257.046875 44.11328125 C257.69884857 44.33077026 258.35082214 44.54825928 259.02255249 44.77233887 C268.20254731 47.8393888 277.27123947 51.10784211 286.25390625 54.71484375 C290.55258703 56.43095525 294.91880553 57.92674486 299.296875 59.42578125 C304.7227003 61.29483319 309.79080598 63.39708965 314.8671875 66.09765625 C317.65940341 67.48029692 320.49682743 68.54052542 323.421875 69.61328125 C330.65955991 72.32847371 337.4330674 75.75380206 344.296875 79.28320312 C346.16234048 80.23233156 348.0376727 81.15515994 349.921875 82.06640625 C377.60594098 95.50203018 404.26826674 111.40973682 429.296875 129.30078125 C429.90225098 129.73277832 430.50762695 130.16477539 431.13134766 130.60986328 C445.37845885 140.82199311 459.45666314 151.35024699 472.296875 163.30078125 C473.6254308 164.4728855 474.9586385 165.63974208 476.296875 166.80078125 C477.63070298 167.96688236 478.96401539 169.13357341 480.296875 170.30078125 C481.41642578 171.27917969 481.41642578 171.27917969 482.55859375 172.27734375 C485.16756087 174.58802317 487.73723796 176.93554702 490.296875 179.30078125 C490.82007324 179.77789551 491.34327148 180.25500977 491.88232422 180.74658203 C504.39346013 192.24976404 513.47486301 204.66346763 514.53515625 222.25390625 C515.00026065 238.72247791 510.81434121 253.19087384 499.921875 265.86328125 C488.59471975 277.40306228 475.47029602 283.95584349 459.33984375 284.29296875 C458.33566406 284.29554688 457.33148437 284.298125 456.296875 284.30078125 C456.36543701 284.8642627 456.43399902 285.42774414 456.50463867 286.00830078 C460.39003177 322.34385697 458.58937147 363.36005447 444.47265625 397.40625 C443.29821329 400.29748667 442.34902651 403.19706046 441.421875 406.17578125 C433.80575616 429.20475718 420.05098173 451.33723692 403.47265625 468.97265625 C401.77753689 470.7864644 400.20440965 472.60307835 398.671875 474.55078125 C382.38062843 493.41432992 355.04734076 508.50624203 330.296875 511.30078125 C313.24926479 512.4966092 296.44733886 512.43275509 280.296875 506.30078125 C279.25321777 505.915271 279.25321777 505.915271 278.18847656 505.52197266 C263.49097011 499.96176875 251.17847002 491.49608138 239.296875 481.30078125 C238.64074219 480.76710938 237.98460937 480.2334375 237.30859375 479.68359375 C232.78482053 475.97229421 229.02453063 471.80134172 225.296875 467.30078125 C224.66910156 466.54925781 224.04132813 465.79773437 223.39453125 465.0234375 C213.98307491 453.52468787 206.30350155 441.36202745 199.296875 428.30078125 C198.81347656 427.40617187 198.33007812 426.5115625 197.83203125 425.58984375 C190.53137234 411.54832087 183.57692086 394.94944077 180.69580078 379.33569336 C180.34220359 377.53200143 179.88531635 375.74924156 179.4140625 373.97265625 C169.58242381 334.71362649 168.74474206 288.47062477 180.36694336 249.58105469 C181.16916337 246.75127573 181.79473563 243.98501894 182.31640625 241.09375 C183.32121675 235.72343782 185.08060885 230.72448936 186.984375 225.61328125 C187.34031738 224.65067383 187.69625977 223.68806641 188.06298828 222.69628906 C196.51549533 200.17884038 208.00852045 180.07846058 223.4140625 161.61328125 C225.40059708 159.24831659 225.40059708 159.24831659 227.296875 156.30078125 C216.97317211 151.50854386 206.62537343 147.96153098 195.546875 145.36328125 C188.58716661 143.68588174 181.73804459 141.93300749 174.984375 139.55078125 C169.9623989 137.79280968 165.15253553 136.58375764 159.90234375 135.76171875 C157.15377227 135.27546473 154.54080587 134.57346176 151.859375 133.80078125 C147.05659779 132.43829126 142.28423164 131.59021757 137.35546875 130.82421875 C134.35635694 130.31096079 131.43951892 129.64806347 128.484375 128.92578125 C113.84854458 125.46767335 98.91152287 123.26330404 84.00610352 121.33984375 C79.48541291 120.75433655 75.00382996 120.08087485 70.515625 119.28125 C63.86313128 118.152135 57.21307814 117.66984894 50.484375 117.23828125 C48.14438169 117.08296628 45.80453133 116.92547943 43.46484375 116.765625 C42.44672607 116.69980225 41.4286084 116.63397949 40.37963867 116.56616211 C38.19830694 116.37838135 36.02288614 116.11481793 33.85644531 115.79858398 C30.28395539 115.29897445 26.77783516 115.04925311 23.17578125 114.87109375 C21.8219025 114.7998648 20.4680624 114.72789835 19.11425781 114.65527344 C18.41836548 114.61833374 17.72247314 114.58139404 17.00549316 114.54333496 C-5.5083134 113.31014028 -24.34441078 111.74490779 -40.703125 94.30078125 C-47.583212 86.04207569 -53.82044009 75.64593509 -53.8359375 64.6328125 C-53.83722656 63.73884766 -53.83851563 62.84488281 -53.83984375 61.92382812 C-53.83597656 60.99634766 -53.83210938 60.06886719 -53.828125 59.11328125 C-53.83199219 58.20513672 -53.83585937 57.29699219 -53.83984375 56.36132812 C-53.8173955 40.68122202 -50.06741556 28.91697491 -38.9453125 17.4765625 C-38.20539063 16.75855469 -37.46546875 16.04054688 -36.703125 15.30078125 C-36.06632812 14.65496094 -35.42953125 14.00914062 -34.7734375 13.34375 C-25.15609936 4.18533049 -13.0897582 -0.01330102 0 0 Z " fill="#664500" transform="translate(395.703125,796.69921875)"/>
<path d="M0 0 C0.7317041 0.08441345 1.4634082 0.1688269 2.21728516 0.25579834 C18.4167032 2.13765754 34.38262543 5.06223221 50.33154297 8.44360352 C52.85716814 8.97021832 55.3877357 9.45778219 57.921875 9.94140625 C63.89364782 11.13126631 69.7515999 12.71400741 75.625 14.3125 C76.77073486 14.62300293 77.91646973 14.93350586 79.09692383 15.25341797 C87.80442618 17.63249013 96.42359458 20.18498728 105 23 C106.79824219 23.58007812 106.79824219 23.58007812 108.6328125 24.171875 C115.78080748 26.50901136 122.87005266 28.99314336 129.9375 31.5625 C131.10889526 31.98378174 131.10889526 31.98378174 132.30395508 32.41357422 C136.7274865 34.03974053 140.91690426 35.88746328 145.10546875 38.04589844 C148.00881289 39.50804649 151.00578518 40.73666019 154 42 C205.29982114 64.46867638 254.68597212 101.48147363 289 146 C289.50466797 146.65387695 290.00933594 147.30775391 290.52929688 147.98144531 C303.17604212 164.47238792 313.97810318 181.7600549 323.5625 200.1875 C324.14644531 201.30962891 324.73039062 202.43175781 325.33203125 203.58789062 C328.58336334 209.94242169 331.50019998 216.31448832 334 223 C334.46664062 224.22847656 334.93328125 225.45695312 335.4140625 226.72265625 C344.79961756 252.60862263 344.79961756 252.60862263 339.4375 264.4375 C334.53548444 272.4699255 327.79886109 277.0670463 319 280 C308.9797748 280.77192846 302.39965586 280.02715853 294.67749023 273.46337891 C293.58538702 272.51606398 292.49643186 271.56510955 291.41040039 270.61083984 C280.56066647 261.13408035 268.34792146 253.36097374 256 246 C254.80757721 245.26597173 253.61620592 244.5302331 252.42578125 243.79296875 C228.98739284 229.35175765 202.94354568 217.67410923 176.9375 208.75 C176.10516846 208.46261963 175.27283691 208.17523926 174.4152832 207.87915039 C172.59342565 207.25250838 170.77071984 206.62832827 168.94726562 206.00634766 C166.90562514 205.30922688 164.86534699 204.60810831 162.82617188 203.90380859 C147.36012201 198.5682495 131.90103616 193.84505544 116 190 C114.86224121 189.71914551 113.72448242 189.43829102 112.55224609 189.14892578 C94.14923671 184.61678602 75.71206865 180.99139493 57 178 C55.23300212 177.71137061 53.46606834 177.42234829 51.69921875 177.1328125 C47.87234569 176.51046795 44.04128062 175.92098003 40.20751953 175.34277344 C38.01827626 175.00283785 35.83587498 174.63252145 33.65234375 174.2578125 C19.10672309 171.86717359 4.44153583 170.98154617 -10.25219727 170.00195312 C-11.5940358 169.91241867 -11.5940358 169.91241867 -12.96298218 169.82107544 C-14.6418262 169.71008122 -16.32079422 169.60093883 -17.99990845 169.49411011 C-22.00058822 169.23315882 -25.98383586 168.91124798 -29.97143555 168.49389648 C-48.18328066 166.62384719 -66.59021896 166.7988673 -84.875 166.8125 C-86.12901611 166.81243958 -87.38303223 166.81237915 -88.67504883 166.81231689 C-106.64738438 166.82461731 -124.4334831 167.26466391 -142.34667969 168.7265625 C-146.29464707 169.02205324 -150.2414907 169.24019828 -154.1953125 169.4375 C-171.48523856 170.3163959 -188.45926985 171.96056292 -205.59350586 174.49804688 C-209.19005302 175.02800466 -212.79005953 175.52938913 -216.390625 176.03125 C-221.15840712 176.71146023 -225.85335738 177.49596496 -230.5625 178.5 C-235.24014553 179.46745512 -239.89752714 180.31733244 -244.625 181 C-250.14392454 181.81260239 -255.51895473 182.97934087 -260.94140625 184.28125 C-263.6619065 184.92055019 -266.3798199 185.47958671 -269.125 186 C-273.58751298 186.86650737 -277.92212441 188.05704889 -282.296875 189.28515625 C-284.77477417 189.94043883 -287.23165724 190.46635309 -289.75 190.9375 C-301.99428463 193.29260984 -313.83806227 197.12429766 -325.63354492 201.09912109 C-327.93026438 201.87256333 -330.22954743 202.63796413 -332.52929688 203.40234375 C-349.76177804 209.15746408 -366.94268462 215.22565315 -383.11328125 223.5703125 C-386.35887379 225.17773722 -389.67103413 226.57381614 -393 228 C-410.05626023 236.12470922 -426.51977173 245.15150719 -442 256 C-442.98613281 256.68964844 -443.97226562 257.37929687 -444.98828125 258.08984375 C-449.66986369 261.43383121 -454.15242721 264.93040755 -458.5625 268.625 C-469.13162413 277.4022324 -477.24906239 281.21702093 -491 280 C-499.31120849 277.36358536 -506.03806206 270.49689502 -510.17749023 262.98095703 C-511.65793789 259.41540278 -511.67699924 255.9433987 -511.625 252.125 C-511.61952148 251.30217529 -511.61404297 250.47935059 -511.60839844 249.6315918 C-511.26621475 239.36313146 -507.68169595 230.19548083 -503.046875 221.13671875 C-501.55374677 218.21502616 -500.29254963 215.27650524 -499.11328125 212.21484375 C-496.85658788 206.45702979 -494.07010569 201.02846166 -491.1875 195.5625 C-490.38747559 194.03919067 -490.38747559 194.03919067 -489.57128906 192.48510742 C-486.0063496 185.75669052 -482.29434087 179.29146807 -478 173 C-477.41347656 172.0925 -476.82695313 171.185 -476.22265625 170.25 C-463.40238248 150.53456876 -448.20349244 132.9801636 -432 116 C-430.7625 114.69869141 -430.7625 114.69869141 -429.5 113.37109375 C-424.8582553 108.6050166 -419.92269953 104.38555885 -414.7265625 100.234375 C-412.19450861 98.15939674 -409.81993485 95.99325481 -407.4375 93.75 C-381.45278068 70.1162791 -346.32438824 49.67584069 -313.7109375 37.08203125 C-310.72362265 35.889688 -307.80906244 34.5678416 -304.875 33.25 C-295.49815444 29.21246455 -285.80088781 26.13763555 -276.09277344 23.00244141 C-273.12238015 22.03966632 -270.15844908 21.05906459 -267.1953125 20.07421875 C-257.13186242 16.76111279 -247.13598619 13.92951953 -236.75 11.82421875 C-233.06924595 11.08463585 -233.06924595 11.08463585 -229.8671875 9.953125 C-226.92845938 8.9762181 -224.19036124 8.48050381 -221.125 8.0625 C-216.19925598 7.35007601 -211.32331668 6.51101042 -206.4375 5.5625 C-139.05495374 -7.22758813 -68.02758856 -7.98315432 0 0 Z " fill="#664500" transform="translate(1109,1455)"/>
</svg>
