<?xml version="1.0" encoding="UTF-8"?>
<svg version="1.1" xmlns="http://www.w3.org/2000/svg" width="432" height="360">
<path d="M0 0 C1.49660156 0.83337891 1.49660156 0.83337891 3.0234375 1.68359375 C10.56841691 6.19112443 16.70814044 11.93446632 23 18 C23.65871094 18.59554687 24.31742188 19.19109375 24.99609375 19.8046875 C44.04733557 37.4919836 53.96664177 66.10686856 55.28515625 91.51171875 C56.21270444 121.86334022 45.39313729 150.13216186 24.9296875 172.3828125 C5.37501849 193.01194658 -22.48437967 206.3562778 -51.078125 207.12890625 C-73.22410296 207.51848044 -92.7128424 202.79632535 -112 192 C-112.99773437 191.44441406 -113.99546875 190.88882813 -115.0234375 190.31640625 C-122.56841691 185.80887557 -128.70814044 180.06553368 -135 174 C-135.65871094 173.40445313 -136.31742188 172.80890625 -136.99609375 172.1953125 C-156.04733557 154.5080164 -165.96664177 125.89313144 -167.28515625 100.48828125 C-168.21270444 70.13665978 -157.39313729 41.86783814 -136.9296875 19.6171875 C-101.15196558 -18.12640316 -44.88206622 -25.12352517 0 0 Z " fill="#F6D240" transform="translate(270,90)"/>
<path d="M0 0 C1.49660156 0.83337891 1.49660156 0.83337891 3.0234375 1.68359375 C10.56841691 6.19112443 16.70814044 11.93446632 23 18 C23.65871094 18.59554687 24.31742188 19.19109375 24.99609375 19.8046875 C44.04733557 37.4919836 53.96664177 66.10686856 55.28515625 91.51171875 C56.21270444 121.86334022 45.39313729 150.13216186 24.9296875 172.3828125 C5.37501849 193.01194658 -22.48437967 206.3562778 -51.078125 207.12890625 C-73.22410296 207.51848044 -92.7128424 202.79632535 -112 192 C-112.99773437 191.44441406 -113.99546875 190.88882813 -115.0234375 190.31640625 C-122.56841691 185.80887557 -128.70814044 180.06553368 -135 174 C-135.65871094 173.40445313 -136.31742188 172.80890625 -136.99609375 172.1953125 C-156.04733557 154.5080164 -165.96664177 125.89313144 -167.28515625 100.48828125 C-168.21270444 70.13665978 -157.39313729 41.86783814 -136.9296875 19.6171875 C-101.15196558 -18.12640316 -44.88206622 -25.12352517 0 0 Z M-118 8 C-118.72960937 8.46664062 -119.45921875 8.93328125 -120.2109375 9.4140625 C-133.40388097 18.48769029 -149.70362382 35.0154385 -153.0625 51.125 C-154 55 -154 55 -155.04858398 56.92797852 C-156.20905538 59.45528689 -156.21388301 61.25488848 -156.16015625 64.02734375 C-156.14919922 64.98447266 -156.13824219 65.94160156 -156.12695312 66.92773438 C-156.10568359 67.92095703 -156.08441406 68.91417969 -156.0625 69.9375 C-156.02789477 71.90487151 -155.99779599 73.87232852 -155.97265625 75.83984375 C-155.95468994 76.70988037 -155.93672363 77.57991699 -155.91821289 78.47631836 C-156 81 -156 81 -156.56420898 83.69750977 C-157.24397046 86.01684822 -157.24397046 86.01684822 -156 88 C-155.55784164 93.71721043 -155.82970073 98.63808415 -158 104 C-158.34976758 105.32911682 -158.69096017 106.66082739 -159 108 C-159.66 106.68 -160.32 105.36 -161 104 C-165.23158934 117.21230052 -159.97081352 131.74942118 -154.12011719 143.81445312 C-149.95735353 151.89790904 -144.94587173 159.11592366 -139 166 C-138.09701172 167.11955078 -138.09701172 167.11955078 -137.17578125 168.26171875 C-120.05298254 188.83061531 -92.32898572 201.04555225 -66.0625 203.75 C-64.3761171 203.85350554 -62.68842437 203.9381628 -61 204 C-60.23171875 204.03996094 -59.4634375 204.07992187 -58.671875 204.12109375 C-26.77333222 205.01890042 -0.18689804 191.32868985 22.80078125 170.45703125 C28.57274904 164.94782375 33.28170751 159.09184264 37 152 C37 151.34 37 150.68 37 150 C37.66 150 38.32 150 39 150 C45.6206717 136.72146181 50.44912503 124.03888659 51 109 C48.03 110.485 48.03 110.485 45 112 C45.53625 111.443125 46.0725 110.88625 46.625 110.3125 C47.07875 109.549375 47.5325 108.78625 48 108 C47.29660434 105.49034386 47.29660434 105.49034386 46 103 C45.63128912 101.34080104 45.28718326 99.6752357 45 98 C44.01 98.33 43.02 98.66 42 99 C42.7734375 97.7315625 42.7734375 97.7315625 43.5625 96.4375 C45.26517201 92.36589302 44.79032083 90.26773248 44 86 C44.3062434 84.66018514 44.63451555 83.32488113 45 82 C44.84587646 81.39510742 44.69175293 80.79021484 44.53295898 80.16699219 C43.96188058 77.84500779 43.91667912 75.90230904 43.97265625 73.515625 C43.98490234 72.66226563 43.99714844 71.80890625 44.00976562 70.9296875 C44.04461612 69.15876627 44.08360431 67.38792109 44.12695312 65.6171875 C44.26088383 55.12332299 41.4799586 46.67221184 35.3125 38.1875 C33 35 33 35 32 32 C31.34 32 30.68 32 30 32 C29.5978125 31.13375 29.5978125 31.13375 29.1875 30.25 C27.97070811 27.94449957 26.69666121 25.97943808 25 24 C24.34 24 23.68 24 23 24 C22.64421875 23.14341797 22.64421875 23.14341797 22.28125 22.26953125 C13.13205762 6.06318743 -11.20569514 -3.24554209 -28.2578125 -8.03515625 C-59.571336 -16.10868475 -91.35603208 -9.7846833 -118 8 Z M40 101 C40 104 40 104 40 104 Z " fill="#EFC007" transform="translate(270,90)"/>
<path d="M0 0 C12.24157447 18.36236171 12.14880433 46.67100325 8.03515625 67.48828125 C1.74703879 96.24377371 -14.78645296 121.69493606 -39.55859375 137.94140625 C-65.68420453 153.89568844 -95.84776133 160.44365805 -125.99462891 153.54345703 C-137.09879583 150.83949498 -147.04632872 146.57174239 -157 141 C-157.99773437 140.44441406 -158.99546875 139.88882813 -160.0234375 139.31640625 C-167.56841691 134.80887557 -173.70814044 129.06553368 -180 123 C-180.65871094 122.40445313 -181.31742188 121.80890625 -181.99609375 121.1953125 C-200.99358153 103.557922 -211.18328366 74.74083882 -212.25 49.34765625 C-212.45677191 40.06839909 -211.64607464 31.14159309 -210 22 C-209.67 22 -209.34 22 -209 22 C-209 35.53 -209 49.06 -209 63 C-208.34 63 -207.68 63 -207 63 C-206.76216797 64.27230469 -206.76216797 64.27230469 -206.51953125 65.5703125 C-202.73791427 84.58286197 -195.65395404 100.28009428 -183 115 C-182.47148437 115.67289062 -181.94296875 116.34578125 -181.3984375 117.0390625 C-165.34391927 136.88972297 -138.47781046 147.8485087 -113.83203125 151.46484375 C-111.21632582 151.7341618 -108.62730994 151.90377687 -106 152 C-105.23171875 152.03996094 -104.4634375 152.07992187 -103.671875 152.12109375 C-73.53086812 152.96943335 -47.01204777 140.73941747 -25 121 C-24.16082031 120.2575 -23.32164062 119.515 -22.45703125 118.75 C-16.95209146 113.59563297 -13.31896274 108.03526156 -9.62890625 101.52734375 C-9.09136719 100.69332031 -8.55382812 99.85929687 -8 99 C-7.34 99 -6.68 99 -6 99 C-5.88269531 98.26652344 -5.76539063 97.53304687 -5.64453125 96.77734375 C-4.99777476 93.99041123 -4.07830566 92.04700422 -2.6875 89.5625 C2.23783082 79.96881215 4.56182318 69.73533205 5 59 C3.02 60.32 1.04 61.64 -1 63 C-1 59.48283697 -0.17554415 58.62878252 2 56 C1.67 55.34 1.34 54.68 1 54 C1.43917472 52.30165301 1.92907936 50.61641793 2.4375 48.9375 C4.09346512 42.07597784 4.37566582 35.4214989 4.4375 28.375 C4.4593335 27.32691162 4.48116699 26.27882324 4.50366211 25.19897461 C4.48770542 18.63562747 3.46381188 13.49498494 0.85961914 7.45947266 C-0.06346578 4.81841686 -0.15665791 2.77641242 0 0 Z " fill="#B96027" transform="translate(315,141)"/>
<path d="M0 0 C5.96796066 3.75378376 12.25082384 8.75662607 15.9375 14.84765625 C16.1875 18.16015625 16.1875 18.16015625 15.9375 20.84765625 C11.36545898 20.84765625 8.47791392 19.39716897 4.5 17.41015625 C-4.88395872 12.75047173 -14.21399501 10.93252622 -24.5546875 13.82421875 C-29.31601043 15.61658743 -33.82481186 17.60137724 -38.1875 20.22265625 C-39.13625 20.75890625 -40.085 21.29515625 -41.0625 21.84765625 C-42.0525 21.51765625 -43.0425 21.18765625 -44.0625 20.84765625 C-44.37658323 17.30006039 -44.39696276 15.38197083 -42.48046875 12.3203125 C-30.32433399 -0.81512559 -16.92555539 -9.13202797 0 0 Z " fill="#581F03" transform="translate(228.0625,236.15234375)"/>
<path d="M0 0 C4.27096719 2.38379564 6.03363867 5.21232036 7.4921875 9.73046875 C9.23860402 17.53560721 8.17711009 24.17258557 4 31 C1.65046947 33.58448358 0.50232569 33.91449775 -2.9375 34.5 C-7.1307366 33.81538994 -8.39398924 32.31033799 -11 29 C-14.37378516 23.18312903 -14.86875256 17.65407181 -14 11 C-12.73117146 7.03735086 -10.96442964 4.02872495 -8.125 1 C-5.15894637 -0.39578994 -3.24436748 -0.46348107 0 0 Z " fill="#904F05" transform="translate(246,186)"/>
<path d="M0 0 C3.7934197 2.20547657 5.94808652 4.7424937 7.4921875 8.88671875 C9.21560842 16.05880118 8.48060341 22.64018425 5.1328125 29.18359375 C3.66272171 31.54080829 2.56538685 32.86821169 0 34 C-2.9375 34.5 -2.9375 34.5 -6 34 C-10.32311205 30.68226285 -12.39010331 27.16861569 -14 22 C-14.76037472 15.62535162 -14.24501621 9.63334815 -11 4 C-7.55082732 0.27116467 -5.05211722 -0.84201954 0 0 Z " fill="#854304" transform="translate(188,186)"/>
<path d="M0 0 C12.24157447 18.36236171 12.14880433 46.67100325 8.03515625 67.48828125 C2.53112065 92.6581759 -11.45393541 118.70591527 -33.390625 133.37109375 C-34.25171875 133.90863281 -35.1128125 134.44617188 -36 135 C-34.67143806 132.07356763 -33.20435823 129.9299237 -30.98828125 127.609375 C-30.39845459 126.98627441 -29.80862793 126.36317383 -29.20092773 125.72119141 C-28.57774658 125.07069824 -27.95456543 124.42020508 -27.3125 123.75 C-26.03842573 122.39903775 -24.76498089 121.04748159 -23.4921875 119.6953125 C-22.32823534 118.4634374 -21.16418551 117.23165457 -20 116 C-15.01249599 110.70817371 -11.27305732 105.51594821 -8 99 C-7.34 99 -6.68 99 -6 99 C-5.88269531 98.26652344 -5.76539063 97.53304687 -5.64453125 96.77734375 C-4.99777476 93.99041123 -4.07830566 92.04700422 -2.6875 89.5625 C2.23783082 79.96881215 4.56182318 69.73533205 5 59 C3.02 60.32 1.04 61.64 -1 63 C-1 59.48283697 -0.17554415 58.62878252 2 56 C1.67 55.34 1.34 54.68 1 54 C1.43917472 52.30165301 1.92907936 50.61641793 2.4375 48.9375 C4.09346512 42.07597784 4.37566582 35.4214989 4.4375 28.375 C4.4593335 27.32691162 4.48116699 26.27882324 4.50366211 25.19897461 C4.48770542 18.63562747 3.46381188 13.49498494 0.85961914 7.45947266 C-0.06346578 4.81841686 -0.15665791 2.77641242 0 0 Z " fill="#B95E25" transform="translate(315,141)"/>
<path d="M0 0 C3.7590392 2.17155651 6.85930269 5.121917 9.9609375 8.1328125 C9.6484375 10.0703125 9.6484375 10.0703125 8.9609375 12.1328125 C4.76535013 13.53134162 2.91526899 11.90544386 -1.0390625 10.1328125 C-11.21111123 7.63204304 -19.94310562 8.89757129 -29.45703125 13.0390625 C-32.0390625 14.1328125 -32.0390625 14.1328125 -34.0390625 14.1328125 C-34.3690625 13.1428125 -34.6990625 12.1528125 -35.0390625 11.1328125 C-26.12868981 0.52821401 -13.4221387 -5.64277668 0 0 Z " fill="#905005" transform="translate(226.0390625,239.8671875)"/>
<path d="M0 0 C9.69035086 2.98164642 17.23648829 9.04714983 23.296875 17.0625 C24.58600498 20.01991583 24.58211505 22.30739262 24.359375 25.5 C21.09903369 24.06951617 18.95864782 22.29084427 16.421875 19.8125 C8.63149281 12.80243523 0.42035509 7.97076665 -10.18359375 7.67578125 C-13.81066574 7.41629279 -16.426483 6.14278369 -19.640625 4.5 C-19.640625 3.51 -19.640625 2.52 -19.640625 1.5 C-14.13257788 -2.17203141 -6.35444684 -1.20320887 0 0 Z " fill="#561F03" transform="translate(175.640625,166.5)"/>
<path d="M0 0 C1.11503906 -0.02578125 2.23007812 -0.0515625 3.37890625 -0.078125 C6.71663781 0.27994582 8.09229019 0.88758816 10.4375 3.25 C10.4375 3.91 10.4375 4.57 10.4375 5.25 C7.27584687 7.20327261 4.19434109 7.68076754 0.54931641 8.18579102 C-12.3932681 10.00385544 -19.97816213 15.2838337 -29.3125 24.2734375 C-31.5625 26.25 -31.5625 26.25 -33.5625 26.25 C-33.21341286 17.8719086 -28.60328547 12.96218015 -22.625 7.4375 C-15.84063711 1.75365399 -8.75326371 0.12171398 0 0 Z " fill="#612C04" transform="translate(261.5625,165.75)"/>
<path d="M0 0 C1.20512617 3.47248213 0.74854849 5.41565526 -0.421875 8.8515625 C-2.42522774 15.71726681 -2.37004502 22.26983525 -2.25 29.375 C-2.24484375 30.61894531 -2.2396875 31.86289063 -2.234375 33.14453125 C-2.19043723 38.24680436 -2.09929578 43.00659786 -1 48 C-0.69846584 53.09947471 -0.9714656 57.98589478 -2 63 C-2.99 62.34 -3.98 61.68 -5 61 C-5.99 63.97 -5.99 63.97 -7 67 C-9.3656494 63.45152589 -9.25729507 61.91394264 -9.265625 57.70703125 C-9.26997559 56.44455566 -9.27432617 55.18208008 -9.27880859 53.88134766 C-9.27071464 52.52505526 -9.26108295 51.16877126 -9.25 49.8125 C-9.24623352 49.13016296 -9.24246704 48.44782593 -9.23858643 47.74481201 C-9.12750525 30.68606066 -7.72662658 15.45325317 0 0 Z " fill="#E78915" transform="translate(114,137)"/>
<path d="M0 0 C0.9075 0.52980469 1.815 1.05960938 2.75 1.60546875 C4.86818291 2.97007693 4.86818291 2.97007693 7 2.8125 C7.66 1.8225 8.32 0.8325 9 -0.1875 C9 1.7925 9 3.7725 9 5.8125 C5.76120745 6.84059378 4.30810813 6.93400159 1.09765625 5.66796875 C0.09605469 5.11753906 -0.90554687 4.56710937 -1.9375 4 C-12.53959219 -1.75933008 -20.92322743 -3.21985939 -32.64453125 -0.29296875 C-37.17909326 1.20095564 -41.21594476 3.3216989 -45.34375 5.703125 C-48.41340017 6.98515537 -49.87211006 6.78713237 -53 5.8125 C-53 3.8325 -53 1.8525 -53 -0.1875 C-52.01 1.2975 -52.01 1.2975 -51 2.8125 C-46.51748694 1.06164499 -42.17597125 -0.93469976 -37.81640625 -2.96875 C-24.56212079 -8.70430765 -12.37680485 -6.79920578 0 0 Z " fill="#F4CE2C" transform="translate(236,254.1875)"/>
<path d="M0 0 C0.33 0.99 0.66 1.98 1 3 C0.03567924 4.68756133 -0.9731657 6.3497306 -2 8 C-3.54971616 11.65884205 -4.80654072 15.41962216 -6.0625 19.1875 C-7 22 -7 22 -8.0625 24.4375 C-10.2784587 30.49445377 -10.10535537 36.77207109 -10 43.125 C-9.92092771 47.94050242 -10.00037835 52.26964757 -11 57 C-10.67 57.66 -10.34 58.32 -10 59 C-9.93003986 60.70702735 -9.91559846 62.41668003 -9.9375 64.125 C-9.94652344 65.03507812 -9.95554687 65.94515625 -9.96484375 66.8828125 C-9.97644531 67.58148438 -9.98804687 68.28015625 -10 69 C-10.99 69.495 -10.99 69.495 -12 70 C-16.68064115 52.47567953 -16.9254721 28.53702125 -8.0234375 12.19140625 C-6.16880181 9.01741935 -4.13000221 5.99675636 -2 3 C-1.34 2.01 -0.68 1.02 0 0 Z " fill="#EDBB12" transform="translate(125,119)"/>
<path d="M0 0 C3.79233112 2.20484368 5.92743939 4.7392159 7.5 8.8671875 C8.85513384 14.6476803 9.05719837 20.79910874 6 26 C5.67 26 5.34 26 5 26 C4.98582031 25.04738281 4.97164062 24.09476563 4.95703125 23.11328125 C5.06480906 15.31100981 5.06480906 15.31100981 1.75 8.625 C-1.24843907 6.85319509 -2.59807271 6.28380478 -6 7 C-7.73296272 7.98693639 -7.73296272 7.98693639 -9 10 C-9.53440451 12.77490256 -9.92108203 15.38888924 -10.1875 18.1875 C-10.26935547 18.93708984 -10.35121094 19.68667969 -10.43554688 20.45898438 C-10.63540784 22.30475918 -10.81926538 24.15225433 -11 26 C-13 25 -13 25 -14 22 C-14.59164985 15.59425262 -14.26148673 9.66194097 -11 4 C-7.55082732 0.27116467 -5.05211722 -0.84201954 0 0 Z " fill="#662E04" transform="translate(188,186)"/>
<path d="M0 0 C4.2688069 2.3825899 6.01579935 5.20773782 7.5 9.7109375 C8.74444448 15.40815987 8.95541379 20.86629318 6 26 C5.67 26 5.34 26 5 26 C4.98582031 25.04738281 4.97164062 24.09476563 4.95703125 23.11328125 C5.06480906 15.31100981 5.06480906 15.31100981 1.75 8.625 C-1.29395971 6.82629653 -2.56228546 6.11853473 -6 7 C-9.95324187 10.90923546 -10.54546386 13.84115837 -10.75 19.3125 C-10.80671875 20.56675781 -10.8634375 21.82101563 -10.921875 23.11328125 C-10.94765625 24.06589844 -10.9734375 25.01851562 -11 26 C-13 25 -13 25 -14 22 C-14.70905795 14.80480536 -14.25797083 8.99052448 -10 3 C-6.92736439 -0.27747798 -4.40943583 -0.6299194 0 0 Z " fill="#663104" transform="translate(246,186)"/>
<path d="M0 0 C0.7425 0.2475 1.485 0.495 2.25 0.75 C3.97142094 6.65003143 4.2130264 13.16503439 2.0625 18.9375 C0.25 20.75 0.25 20.75 -2.3125 21.1875 C-4.75 20.75 -4.75 20.75 -6.75 18.75 C-8.11638048 14.46108349 -9.0884842 10.30702733 -8.125 5.875 C-4.08333333 -0.37121212 -4.08333333 -0.37121212 0 0 Z " fill="#9F5F06" transform="translate(187.75,196.25)"/>
<path d="M0 0 C2.12833562 3.19250343 3.33484228 6.34195648 4.5625 9.9375 C4.99691406 11.16339844 5.43132812 12.38929688 5.87890625 13.65234375 C8.66609455 23.13826651 8.18180195 33.5175512 8.1875 43.3125 C8.19974609 44.43978516 8.21199219 45.56707031 8.22460938 46.72851562 C8.23487459 52.54889501 8.00253005 57.514809 6 63 C5.67 61.68 5.34 60.36 5 59 C3.02 60.32 1.04 61.64 -1 63 C-1 59.48283697 -0.17554415 58.62878252 2 56 C1.67 55.34 1.34 54.68 1 54 C1.43917472 52.30165301 1.92907936 50.61641793 2.4375 48.9375 C4.09346512 42.07597784 4.37566582 35.4214989 4.4375 28.375 C4.4593335 27.32691162 4.48116699 26.27882324 4.50366211 25.19897461 C4.48770542 18.63562747 3.46381188 13.49498494 0.85961914 7.45947266 C-0.06346578 4.81841686 -0.15665791 2.77641242 0 0 Z " fill="#E27513" transform="translate(315,141)"/>
<path d="M0 0 C0.495 1.98 0.495 1.98 1 4 C-2.52540573 7.28794317 -6.27132123 7.81578352 -10.875 8.5 C-16.09631493 9.2846503 -20.38768763 10.22413666 -25 13 C-25.4640625 14.0209375 -25.4640625 14.0209375 -25.9375 15.0625 C-26.4634375 16.0215625 -26.4634375 16.0215625 -27 17 C-28.670625 17.4640625 -28.670625 17.4640625 -30.375 17.9375 C-34.59453614 19.17426059 -35.53850551 20.4835793 -38 24 C-41 26 -41 26 -43.1875 25.625 C-44.0846875 25.315625 -44.0846875 25.315625 -45 25 C-45 23.02 -45 21.04 -45 19 C-44.67 20.32 -44.34 21.64 -44 23 C-43.29875 22.41992188 -42.5975 21.83984375 -41.875 21.2421875 C-30.21501306 11.64170912 -22.44939723 5.31227658 -7.20703125 3.4296875 C-4.71852615 3.09627025 -2.40905967 2.68147097 0 2 C0 1.34 0 0.68 0 0 Z " fill="#F3EE2C" transform="translate(272,169)"/>
<path d="M0 0 C0.7425 0.2475 1.485 0.495 2.25 0.75 C3.18619813 3.90506142 3.3557123 6.71586502 3.3125 10 C3.30347656 10.89203125 3.29445312 11.7840625 3.28515625 12.703125 C3.27355469 13.37859375 3.26195312 14.0540625 3.25 14.75 C2.59 14.75 1.93 14.75 1.25 14.75 C0.92 16.07 0.59 17.39 0.25 18.75 C-2.76031744 19.68423645 -3.61650268 19.79449911 -6.75 18.75 C-8.50403367 14.68577565 -8.94030588 10.75862119 -8.125 6.4375 C-4.61666667 -0.41969697 -4.61666667 -0.41969697 0 0 Z " fill="#A06006" transform="translate(245.75,196.25)"/>
<path d="M0 0 C0.66 0.66 1.32 1.32 2 2 C5.77035495 3.64348805 9.0151223 4.05770072 13.0625 4.1875 C24.39973209 5.11047683 32.95657887 12.29859824 40.7578125 19.9609375 C42.91072444 22.19486506 42.91072444 22.19486506 46 23 C46.495 21.515 46.495 21.515 47 20 C47.1875 22.375 47.1875 22.375 47 25 C46.01 25.66 45.02 26.32 44 27 C41.5 26.4375 41.5 26.4375 39 25 C38.54625 24.21625 38.0925 23.4325 37.625 22.625 C35.69653403 19.50978574 33.97538074 18.67298069 30.71875 17.1875 C29 16 29 16 27.96484375 13.51171875 C24.71823721 9.36148415 20.07882752 9.50983701 15.0625 8.8125 C13.07339738 8.51189607 11.08507078 8.20610057 9.09765625 7.89453125 C7.77519897 7.70661011 7.77519897 7.70661011 6.42602539 7.51489258 C4.00003286 7.00000697 2.15385517 6.20937388 0 5 C0 3.35 0 1.7 0 0 Z " fill="#F3F02F" transform="translate(155,169)"/>
<path d="M0 0 C1.11503906 -0.02578125 2.23007812 -0.0515625 3.37890625 -0.078125 C6.71663781 0.27994582 8.09229019 0.88758816 10.4375 3.25 C10.4375 3.91 10.4375 4.57 10.4375 5.25 C7.72870665 6.60439668 5.42816732 6.31501451 2.4375 6.25 C2.7675 5.26 3.0975 4.27 3.4375 3.25 C0.85388159 3.72766899 -1.72939338 4.20707792 -4.3125 4.6875 C-5.40691406 4.88956055 -5.40691406 4.88956055 -6.5234375 5.09570312 C-15.0844944 6.66579555 -15.0844944 6.66579555 -21.5625 12.25 C-22.8293682 13.52478613 -24.10031763 14.7955274 -25.375 16.0625 C-25.97957031 16.66707031 -26.58414063 17.27164063 -27.20703125 17.89453125 C-27.65433594 18.34183594 -28.10164062 18.78914063 -28.5625 19.25 C-29.5625 17.25 -29.5625 17.25 -28.88671875 14.8828125 C-26.09384917 9.33002755 -20.46507258 4.834417 -14.8125 2.3125 C-9.80610582 0.67579421 -5.2709838 0.07329294 0 0 Z " fill="#572003" transform="translate(261.5625,165.75)"/>
<path d="M0 0 C4.48904892 6.73357338 4.34963249 13.21420115 4.3125 21.0625 C4.31121094 22.17616943 4.30992187 23.28983887 4.30859375 24.43725586 C4.21639417 32.3301162 3.51485077 39.47041704 1 47 C0.34 46.67 -0.32 46.34 -1 46 C-1 44.35 -1 42.7 -1 41 C-2.32 41.66 -3.64 42.32 -5 43 C-3.15962441 37.34741784 -3.15962441 37.34741784 -1.9375 34.6875 C0.67918799 27.18632777 0.12681732 18.77926577 0.0625 10.9375 C0.05798828 9.88111328 0.05347656 8.82472656 0.04882812 7.73632812 C0.03715918 5.15749092 0.02078885 2.57877706 0 0 Z M-6 43 C-6 46 -6 46 -6 46 Z " fill="#EA9F15" transform="translate(316,148)"/>
<path d="M0 0 C1.46439131 4.51780297 -0.13473716 7.65969669 -1.875 11.875 C-4.96859059 19.48890561 -6.17654116 26.02909876 -6.125 34.3125 C-6.12306641 35.06724609 -6.12113281 35.82199219 -6.11914062 36.59960938 C-6.08400637 41.12412123 -5.82941397 45.53178225 -5.23046875 50.01953125 C-4.52611844 56.07216869 -4.65901767 61.29385556 -7 67 C-9.3656494 63.45152589 -9.25729507 61.91394264 -9.265625 57.70703125 C-9.26997559 56.44455566 -9.27432617 55.18208008 -9.27880859 53.88134766 C-9.27071464 52.52505526 -9.26108295 51.16877126 -9.25 49.8125 C-9.24623352 49.13016296 -9.24246704 48.44782593 -9.23858643 47.74481201 C-9.12750525 30.68606066 -7.72662658 15.45325317 0 0 Z " fill="#DE6A11" transform="translate(114,137)"/>
<path d="M0 0 C1.8203125 2.109375 1.8203125 2.109375 3 4 C2.484375 3.71125 1.96875 3.4225 1.4375 3.125 C-5.92772629 -0.27433521 -13.35485554 -1.64600957 -21.09765625 1.09765625 C-27.11539002 3.89400094 -32.69868598 7.0199882 -36 13 C-36 13.99 -36 14.98 -36 16 C-38.3125 17.75 -38.3125 17.75 -41 19 C-41.99 18.67 -42.98 18.34 -44 18 C-44.3125 15.3125 -44.3125 15.3125 -44 12 C-41.5 9.125 -41.5 9.125 -39 7 C-38.34 7.66 -37.68 8.32 -37 9 C-36.10796875 8.30132812 -35.2159375 7.60265625 -34.296875 6.8828125 C-33.11472354 5.96336137 -31.93242408 5.04410051 -30.75 4.125 C-29.87021484 3.43470703 -29.87021484 3.43470703 -28.97265625 2.73046875 C-19.78677065 -4.39117289 -10.87523856 -4.77797366 0 0 Z " fill="#732F03" transform="translate(228,239)"/>
<path d="M0 0 C0.33 0 0.66 0 1 0 C1 13.53 1 27.06 1 41 C1.66 41 2.32 41 3 41 C3.19335938 41.92941406 3.38671875 42.85882813 3.5859375 43.81640625 C5.13981552 51.47030847 5.13981552 51.47030847 7.1875 59 C8.03444722 62.12718975 8.1572853 64.77565143 8 68 C-4.46478834 49.30281749 -3.80661076 21.14028476 0 0 Z " fill="#C0491A" transform="translate(105,163)"/>
<path d="M0 0 C1.33804688 0.30550781 1.33804688 0.30550781 2.703125 0.6171875 C3.37859375 0.78476563 4.0540625 0.95234375 4.75 1.125 C4.75 1.785 4.75 2.445 4.75 3.125 C5.3275 3.2075 5.905 3.29 6.5 3.375 C9.51907279 4.3813576 10.83189897 5.59036649 12.75 8.125 C12.859375 11.26953125 12.859375 11.26953125 12.75 14.125 C12.02554688 13.65449219 11.30109375 13.18398437 10.5546875 12.69921875 C1.6116658 6.93991277 -4.54535448 3.67737495 -15.25 3.125 C-15.25 2.795 -15.25 2.465 -15.25 2.125 C-13.88875 1.939375 -13.88875 1.939375 -12.5 1.75 C-9.37118068 1.33460944 -9.37118068 1.33460944 -7.375 0.03125 C-4.55842317 -1.16993718 -2.94870456 -0.69837739 0 0 Z " fill="#6B3506" transform="translate(178.25,170.875)"/>
<path d="M0 0 C5.78888454 7.49707997 6.16850315 15.14058648 6.125 24.3125 C6.12886719 25.11623047 6.13273437 25.91996094 6.13671875 26.74804688 C6.12788687 32.23705959 5.68823718 37.55418674 5 43 C4.01 43 3.02 43 2 43 C2.185625 41.906875 2.37125 40.81375 2.5625 39.6875 C3.2578068 36.06375867 3.2578068 36.06375867 2 33 C1.9411788 31.42815714 1.93885851 29.85382993 1.97265625 28.28125 C1.98619141 27.35328613 1.99972656 26.42532227 2.01367188 25.46923828 C2.02978516 24.48938965 2.04589844 23.50954102 2.0625 22.5 C2.13754514 14.80412049 2.00647449 7.48844945 0 0 Z " fill="#EFB717" transform="translate(311,137)"/>
<path d="M0 0 C0.75127167 -0.0033284 1.50254333 -0.0066568 2.27658081 -0.01008606 C3.86862578 -0.01514825 5.46068136 -0.0174946 7.05273438 -0.01733398 C9.46242359 -0.01950444 11.87164275 -0.03762261 14.28125 -0.05664062 C21.87304341 -0.08356608 29.01782995 0.02087007 36.3671875 2.16796875 C36.3671875 2.49796875 36.3671875 2.82796875 36.3671875 3.16796875 C35.68398437 3.09578125 35.00078125 3.02359375 34.296875 2.94921875 C12.94529643 0.98334451 -7.14268752 1.46890814 -27.27856445 9.27392578 C-29.04524977 9.95418535 -30.83746987 10.56740655 -32.6328125 11.16796875 C-33.2928125 10.83796875 -33.9528125 10.50796875 -34.6328125 10.16796875 C-33.6428125 9.83796875 -32.6528125 9.50796875 -31.6328125 9.16796875 C-31.6328125 8.50796875 -31.6328125 7.84796875 -31.6328125 7.16796875 C-30.70214966 6.90318726 -30.70214966 6.90318726 -29.75268555 6.63305664 C-26.94169685 5.83288659 -24.13100192 5.03168941 -21.3203125 4.23046875 C-20.34384766 3.95267578 -19.36738281 3.67488281 -18.36132812 3.38867188 C-17.42353516 3.12119141 -16.48574219 2.85371094 -15.51953125 2.578125 C-14.22341919 2.20892944 -14.22341919 2.20892944 -12.90112305 1.83227539 C-8.42687977 0.52193033 -4.65718164 0.00717949 0 0 Z " fill="#F4D008" transform="translate(201.6328125,77.83203125)"/>
<path d="M0 0 C0.721875 0.12375 1.44375 0.2475 2.1875 0.375 C1.589375 0.643125 0.99125 0.91125 0.375 1.1875 C-3.12338537 3.08662349 -4.54595454 4.57536361 -5.8125 8.375 C-5.98191458 10.34965189 -6.07846621 12.33114037 -6.125 14.3125 C-6.16238281 15.35277344 -6.19976562 16.39304688 -6.23828125 17.46484375 C-6.03342077 20.47454816 -6.03342077 20.47454816 -4.02734375 22.76953125 C-1.76024838 24.77295242 -1.76024838 24.77295242 1.9375 24.125 C3.01 23.8775 4.0825 23.63 5.1875 23.375 C6.3937252 19.75632441 6.29566918 16.44993749 6.25 12.6875 C6.24548828 11.98560547 6.24097656 11.28371094 6.23632812 10.56054688 C6.22456927 8.83199462 6.20663454 7.10348635 6.1875 5.375 C6.8475 5.705 7.5075 6.035 8.1875 6.375 C8.61260141 8.99745661 8.8858333 11.4842977 9.0625 14.125 C9.1346875 14.84171875 9.206875 15.5584375 9.28125 16.296875 C9.54613457 20.08890673 9.37168387 22.08369664 7.3203125 25.328125 C4.81028377 27.73701704 3.81657093 28.29112388 0.375 28.75 C-3.8717261 28.25038516 -5.16148555 26.63196061 -7.8125 23.375 C-9.74988523 17.56284432 -9.3149596 9.73515189 -6.8046875 4.12109375 C-4.78069775 1.47972348 -3.30216281 0.44028837 0 0 Z " fill="#7B4306" transform="translate(242.8125,191.625)"/>
<path d="M0 0 C9.4128611 7.00957741 17.70413593 19.06660479 22 30 C22.15234375 33.31640625 22.15234375 33.31640625 22 36 C20.88158632 33.91229447 20.0291824 32.14591199 19.5625 29.8125 C19.376875 29.214375 19.19125 28.61625 19 28 C18.01 27.67 17.02 27.34 16 27 C14.68359375 25.00390625 14.68359375 25.00390625 13.4375 22.5625 C12.08610241 19.93969409 11.0968741 18.0968741 9 16 C9 15.01 9 14.02 9 13 C8.34 13 7.68 13 7 13 C3.48370003 9.19067503 1.34153938 5.00028314 0 0 Z " fill="#E8B808" transform="translate(293,109)"/>
<path d="M0 0 C0.66 0.66 1.32 1.32 2 2 C2.66 1.67 3.32 1.34 4 1 C4.02706445 3.89589652 4.04687029 6.79153795 4.0625 9.6875 C4.07087891 10.50412109 4.07925781 11.32074219 4.08789062 12.16210938 C4.10457085 16.28212564 3.85812899 19.95674357 3 24 C3.33 24.66 3.66 25.32 4 26 C4.06996014 27.70702735 4.08440154 29.41668003 4.0625 31.125 C4.05347656 32.03507812 4.04445313 32.94515625 4.03515625 33.8828125 C4.02355469 34.58148438 4.01195313 35.28015625 4 36 C3.01 36.495 3.01 36.495 2 37 C-0.18751681 29.08532302 -0.23376006 21.61541991 -0.125 13.4375 C-0.11597656 12.14263672 -0.10695313 10.84777344 -0.09765625 9.51367188 C-0.07425094 6.34225229 -0.04146228 3.17122627 0 0 Z " fill="#EFAC19" transform="translate(111,152)"/>
<path d="M0 0 C3.17560132 1.58780066 3.63608773 4.67725771 4.90234375 7.87109375 C5.94322779 10.31267207 5.94322779 10.31267207 9 12 C11.9149255 12.5838196 11.9149255 12.5838196 15 12 C19.40411405 8.62009852 21.11722236 5.05377155 23 0 C23.33 0 23.66 0 24 0 C23.59930579 5.81006609 22.92755506 9.43554411 19 14 C15.61266227 16.35640886 14.03800816 17.16947072 9.9375 16.5 C5.38541688 14.17553202 2.71157264 11.66033616 0.6875 6.9375 C0 4 0 4 0 0 Z " fill="#FAF62D" transform="translate(173,207)"/>
<path d="M0 0 C0.33 0 0.66 0 1 0 C4.09004658 17.16079441 3.38507144 32.9537474 0 50 C-0.66 50 -1.32 50 -2 50 C-2.495 52.475 -2.495 52.475 -3 55 C-3.66 54.67 -4.32 54.34 -5 54 C-4.72285156 53.05898437 -4.44570313 52.11796875 -4.16015625 51.1484375 C-3.79792969 49.90320313 -3.43570312 48.65796875 -3.0625 47.375 C-2.70285156 46.14523438 -2.34320313 44.91546875 -1.97265625 43.6484375 C-0.38600311 37.69689521 0.14215361 32.12136567 0.09765625 25.9765625 C0.0962413 25.23038666 0.09482635 24.48421082 0.09336853 23.71542358 C0.08780874 21.35190682 0.07526389 18.98848773 0.0625 16.625 C0.0574798 15.01432429 0.0529178 13.40364709 0.04882812 11.79296875 C0.03785251 7.86194201 0.02061596 3.93098752 0 0 Z " fill="#C54617" transform="translate(322,163)"/>
<path d="M0 0 C0.66 0.33 1.32 0.66 2 1 C2.42510141 3.62245661 2.6983333 6.1092977 2.875 8.75 C2.9471875 9.46671875 3.019375 10.1834375 3.09375 10.921875 C3.35863457 14.71390673 3.18418387 16.70869664 1.1328125 19.953125 C-1.37721623 22.36201704 -2.37092907 22.91612388 -5.8125 23.375 C-10.0592261 22.87538516 -11.34898555 21.25696061 -14 18 C-15.06671952 14.79984144 -14.94845472 13.11455706 -14.5625 9.8125 C-14.46066406 8.91144531 -14.35882813 8.01039063 -14.25390625 7.08203125 C-14.17011719 6.39496094 -14.08632812 5.70789063 -14 5 C-13.67 5 -13.34 5 -13 5 C-12.97421875 5.84304687 -12.9484375 6.68609375 -12.921875 7.5546875 C-12.86515625 8.65039062 -12.8084375 9.74609375 -12.75 10.875 C-12.70359375 11.96554688 -12.6571875 13.05609375 -12.609375 14.1796875 C-12.30595739 17.09439537 -12.30595739 17.09439537 -10.125 18.375 C-7.66203741 19.09940076 -5.55422575 19.14190143 -3 19 C-2.34 17.68 -1.68 16.36 -1 15 C-0.34 15 0.32 15 1 15 C0.67 10.05 0.34 5.1 0 0 Z " fill="#7C4607" transform="translate(191,197)"/>
<path d="M0 0 C2.46800047 1.15173355 4.04783565 2.04783565 6 4 C6.66 3.34 7.32 2.68 8 2 C12.92307692 7.16923077 12.92307692 7.16923077 13.3125 11.375 C13.1578125 12.674375 13.1578125 12.674375 13 14 C8.66905042 14 6.72965139 13.03435531 3 11 C3.2475 10.113125 3.495 9.22625 3.75 8.3125 C4.35289652 4.8829449 4.35289652 4.8829449 2.0625 2.125 C1.381875 1.42375 0.70125 0.7225 0 0 Z " fill="#6C3306" transform="translate(231,243)"/>
<path d="M0 0 C0.33 0 0.66 0 1 0 C0.88396172 6.49814362 -0.73346768 9.59248226 -5.015625 14.43359375 C-7.40684704 16.32115288 -8.97239592 16.78712159 -12 17 C-14.69817137 16.18205041 -16.87239854 14.8465975 -19 13 C-19.9375 10.25 -19.9375 10.25 -20 8 C-19.34 8 -18.68 8 -18 8 C-17.4225 8.66 -16.845 9.32 -16.25 10 C-14.12021223 12.23680906 -14.12021223 12.23680906 -11.0625 12.5625 C-6.89789221 11.79757204 -5.6004958 10.30333251 -3 7 C-1.81031201 4.69676405 -0.90831237 2.43810163 0 0 Z " fill="#FAF62D" transform="translate(254,207)"/>
<path d="M0 0 C5.67059942 1.81908338 9.63169687 5.47769236 13.84765625 9.5703125 C13.53515625 11.5078125 13.53515625 11.5078125 12.84765625 13.5703125 C9.20604817 14.78418186 8.51600156 14.237782 5.16015625 12.6328125 C4.35191406 12.25253906 3.54367188 11.87226563 2.7109375 11.48046875 C2.09605469 11.18011719 1.48117188 10.87976563 0.84765625 10.5703125 C0.84765625 10.2403125 0.84765625 9.9103125 0.84765625 9.5703125 C3.81765625 9.9003125 6.78765625 10.2303125 9.84765625 10.5703125 C9.18765625 9.2503125 8.52765625 7.9303125 7.84765625 6.5703125 C6.85765625 6.2403125 5.86765625 5.9103125 4.84765625 5.5703125 C4.84765625 4.9103125 4.84765625 4.2503125 4.84765625 3.5703125 C-1.911218 1.49065888 -8.10794296 1.35898048 -15.15234375 1.5703125 C-10.46697303 -1.55326798 -5.43367662 -1.08476303 0 0 Z " fill="#7E3E05" transform="translate(222.15234375,238.4296875)"/>
<path d="M0 0 C1.12921875 -0.00515625 2.2584375 -0.0103125 3.421875 -0.015625 C6.25 0.25 6.25 0.25 8.25 2.25 C6.90808594 2.30607422 6.90808594 2.30607422 5.5390625 2.36328125 C-5.49639571 2.96329017 -13.90732863 4.90920255 -23.5234375 10.359375 C-26.14414583 11.40765833 -27.11867857 11.03573702 -29.75 10.25 C-27.04363164 8.95407751 -24.3350566 7.66316835 -21.625 6.375 C-20.86445313 6.01019531 -20.10390625 5.64539063 -19.3203125 5.26953125 C-12.81070528 2.18307955 -7.32897588 -0.03377408 0 0 Z " fill="#EDDB32" transform="translate(213.75,247.75)"/>
<path d="M0 0 C0.33 0 0.66 0 1 0 C1.02505615 0.73114014 1.0501123 1.46228027 1.07592773 2.21557617 C1.19222641 5.53971417 1.31479928 8.86359241 1.4375 12.1875 C1.47681641 13.33798828 1.51613281 14.48847656 1.55664062 15.67382812 C1.59853516 16.78564453 1.64042969 17.89746094 1.68359375 19.04296875 C1.72025146 20.06414795 1.75690918 21.08532715 1.79467773 22.13745117 C1.98859294 24.84096583 2.43578189 27.35338652 3 30 C3.06371368 31.60303627 3.08644214 33.20837672 3.0625 34.8125 C3.05347656 35.60269531 3.04445313 36.39289063 3.03515625 37.20703125 C3.01775391 38.09455078 3.01775391 38.09455078 3 39 C-2.55141786 33.44858214 -1.18031881 19.25219335 -1.1875 11.75 C-1.18830566 10.92830322 -1.18911133 10.10660645 -1.18994141 9.26000977 C-1.15866338 5.93168076 -1.05910915 3.17732744 0 0 Z " fill="#EC9D17" transform="translate(110,155)"/>
<path d="M0 0 C3.09813156 4.64719734 2.33778925 9.40659579 2.3125 14.875 C2.31121094 16.00220459 2.30992187 17.12940918 2.30859375 18.29077148 C2.2168824 26.23813297 1.53210581 33.41875462 -1 41 C-1.66 40.67 -2.32 40.34 -3 40 C-3.23228738 35.2381088 -2.33407626 31.55155429 -1 27 C-0.05659951 20.95961629 0.12346388 15.10576725 0.0625 9 C0.05798828 8.12988281 0.05347656 7.25976562 0.04882812 6.36328125 C0.0371736 4.24215707 0.01924357 2.1210689 0 0 Z " fill="#E98E16" transform="translate(318,154)"/>
<path d="M0 0 C1.16144531 0.00902344 2.32289063 0.01804688 3.51953125 0.02734375 C4.39996094 0.03894531 5.28039062 0.05054688 6.1875 0.0625 C6.5175 0.7225 6.8475 1.3825 7.1875 2.0625 C6.25550781 2.07667969 5.32351562 2.09085938 4.36328125 2.10546875 C-3.98532677 2.41780292 -10.52705739 3.62859933 -18.30078125 7.00390625 C-20.8125 8.0625 -20.8125 8.0625 -22.8125 8.0625 C-22.8125 7.4025 -22.8125 6.7425 -22.8125 6.0625 C-21.08648621 5.24332358 -19.3565353 4.43243984 -17.625 3.625 C-16.66207031 3.17253906 -15.69914063 2.72007812 -14.70703125 2.25390625 C-9.71664709 0.1998345 -5.37493039 -0.05429223 0 0 Z " fill="#824907" transform="translate(214.8125,245.9375)"/>
<path d="M0 0 C2.52259061 1.97420135 2.9929808 2.96745642 3.6875 6.1875 C3.790625 7.115625 3.89375 8.04375 4 9 C1.6875 10.5625 1.6875 10.5625 -1 12 C-1.99 11.67 -2.98 11.34 -4 11 C-4.36630156 7.06225823 -4.30233203 5.43460229 -2 2.125 C-1.34 1.42375 -0.68 0.7225 0 0 Z " fill="#602C05" transform="translate(188,246)"/>
<path d="M0 0 C0 0.33 0 0.66 0 1 C-0.79921875 1.14695313 -1.5984375 1.29390625 -2.421875 1.4453125 C-9.7980164 2.95170757 -15.81701972 5.12520368 -22.34375 8.890625 C-25.41340017 10.17265537 -26.87211006 9.97463237 -30 9 C-30 7.02 -30 5.04 -30 3 C-29.34 4.32 -28.68 5.64 -28 7 C-22.31339154 6.28917394 -17.62033055 3.37912134 -12.625 0.75 C-8.46725308 -0.43792769 -4.29452851 -0.15010003 0 0 Z " fill="#F7B624" transform="translate(213,251)"/>
<path d="M0 0 C4.24896601 0.30349757 6.16449355 3.09178825 9 6 C9.99 6.33 10.98 6.66 12 7 C12.33 6.01 12.66 5.02 13 4 C13.1875 6.375 13.1875 6.375 13 9 C12.01 9.66 11.02 10.32 10 11 C6.60384747 10.23586568 5.31970447 9.47955671 3.375 6.5625 C2.694375 5.2940625 2.694375 5.2940625 2 4 C0.41754725 2.24850835 0.41754725 2.24850835 -1 1 C-0.67 0.67 -0.34 0.34 0 0 Z " fill="#F1EB29" transform="translate(189,185)"/>
<path d="M0 0 C0.99 0.66 1.98 1.32 3 2 C3 2.99 3 3.98 3 5 C2.39671875 4.96519531 1.7934375 4.93039063 1.171875 4.89453125 C-3.92525488 4.6485551 -3.92525488 4.6485551 -8.5625 6.5 C-9.036875 6.995 -9.51125 7.49 -10 8 C-10.25 5.6875 -10.25 5.6875 -10 3 C-7.02226725 -0.3213173 -4.30709925 -0.45820205 0 0 Z " fill="#511401" transform="translate(246,186)"/>
<path d="M0 0 C0.99 0.66 1.98 1.32 3 2 C3 2.99 3 3.98 3 5 C2.39671875 4.98839844 1.7934375 4.97679687 1.171875 4.96484375 C0.37265625 4.95582031 -0.4265625 4.94679687 -1.25 4.9375 C-2.03890625 4.92589844 -2.8278125 4.91429687 -3.640625 4.90234375 C-5.90691002 4.99614694 -7.8288895 5.36758937 -10 6 C-9.6875 4.125 -9.6875 4.125 -9 2 C-5.53001271 -0.31332486 -4.07490752 -0.33957563 0 0 Z " fill="#4F1502" transform="translate(188,186)"/>
<path d="M0 0 C0.33 0 0.66 0 1 0 C1.05840224 4.18744075 1.09373166 8.37477565 1.125 12.5625 C1.14175781 13.74392578 1.15851563 14.92535156 1.17578125 16.14257812 C1.2094585 22.15396759 1.11038894 27.34183122 -1 33 C-2.7410276 29.51794479 -2.50490241 24.90707265 -1.51147461 21.15478516 C-0.97219873 18.88287637 -0.79384285 16.78410592 -0.68359375 14.453125 C-0.64169922 13.60878906 -0.59980469 12.76445312 -0.55664062 11.89453125 C-0.51732422 11.02183594 -0.47800781 10.14914063 -0.4375 9.25 C-0.39431641 8.36183594 -0.35113281 7.47367188 -0.30664062 6.55859375 C-0.20086385 4.37254037 -0.09877454 2.18637911 0 0 Z " fill="#DD6113" transform="translate(322,171)"/>
<path d="M0 0 C1.65 0 3.3 0 5 0 C4.21625 0.680625 3.4325 1.36125 2.625 2.0625 C-0.39081311 5.43733848 -1.2352743 7.56459094 -2 12 C-1.70742792 15.810185 -1.70742792 15.810185 -1 19 C-1.66 19 -2.32 19 -3 19 C-4.85437404 15.29125192 -4.46438653 11.04679692 -4 7 C-2.92473903 4.33767261 -1.65396201 2.37757038 0 0 Z " fill="#925105" transform="translate(182,195)"/>
<path d="M0 0 C0.33 0 0.66 0 1 0 C1.13572155 2.39774745 1.23436868 4.78775245 1.3125 7.1875 C1.35439453 7.86103516 1.39628906 8.53457031 1.43945312 9.22851562 C1.53929382 13.32198414 1.15925343 14.81111803 -1.51953125 17.98828125 C-2.74736328 18.98408203 -2.74736328 18.98408203 -4 20 C-4 17 -4 17 -2.5625 13.375 C-0.82624367 8.96884007 -0.31554396 4.70051694 0 0 Z M-6 20 C-6 23 -6 23 -6 23 Z " fill="#EFA71B" transform="translate(316,171)"/>
<path d="M0 0 C0.33 0 0.66 0 1 0 C1.05379226 2.95857409 1.09357093 5.91617721 1.125 8.875 C1.15013672 10.13763672 1.15013672 10.13763672 1.17578125 11.42578125 C1.18222656 12.23144531 1.18867187 13.03710938 1.1953125 13.8671875 C1.21102295 14.98262939 1.21102295 14.98262939 1.22705078 16.12060547 C1 18 1 18 -1 20 C-2 19 -2 19 -2.1328125 17.25 C-2.08013937 2.08013937 -2.08013937 2.08013937 0 0 Z " fill="#F1BE19" transform="translate(114,153)"/>
<path d="M0 0 C0.33 0.99 0.66 1.98 1 3 C-0.35209473 5.63086546 -1.74300308 8.06782595 -3.3125 10.5625 C-3.93801758 11.59020508 -3.93801758 11.59020508 -4.57617188 12.63867188 C-6.25093687 15.36049887 -7.73090488 17.73090488 -10 20 C-9.48852353 15.25658123 -8.21129962 12.26091856 -5.5625 8.3125 C-4.94503906 7.38050781 -4.32757813 6.44851562 -3.69140625 5.48828125 C-2.85416016 4.25658203 -2.85416016 4.25658203 -2 3 C-1.34 2.01 -0.68 1.02 0 0 Z " fill="#E3A308" transform="translate(125,119)"/>
<path d="M0 0 C0.33 0 0.66 0 1 0 C1 1.98 1 3.96 1 6 C-1.99553637 6.88855164 -3.51639033 7.19605797 -6.45703125 6.00390625 C-7.23433594 5.52824219 -8.01164063 5.05257813 -8.8125 4.5625 C-9.60269531 4.08941406 -10.39289063 3.61632812 -11.20703125 3.12890625 C-11.79871094 2.75636719 -12.39039063 2.38382812 -13 2 C-9.70303895 0.90101298 -8.59505097 1.12875556 -5.3125 1.9375 C-4.50425781 2.13214844 -3.69601563 2.32679688 -2.86328125 2.52734375 C-2.24839844 2.68332031 -1.63351563 2.83929688 -1 3 C-0.67 2.01 -0.34 1.02 0 0 Z " fill="#F4BD27" transform="translate(244,254)"/>
<path d="M0 0 C0.66 0 1.32 0 2 0 C2.05429959 1.74965358 2.09292823 3.49979787 2.125 5.25 C2.14820313 6.22453125 2.17140625 7.1990625 2.1953125 8.203125 C1.99862781 11.0196498 1.44568916 12.60949036 0 15 C-0.33 15 -0.66 15 -1 15 C-1.02693575 12.87506859 -1.04636628 10.75004088 -1.0625 8.625 C-1.07410156 7.44164062 -1.08570313 6.25828125 -1.09765625 5.0390625 C-1 2 -1 2 0 0 Z " fill="#683805" transform="translate(194,197)"/>
<path d="M0 0 C0 0.66 0 1.32 0 2 C-2.70879335 3.35439668 -5.00933268 3.06501451 -8 3 C-7.67 2.01 -7.34 1.02 -7 0 C-9.64 0 -12.28 0 -15 0 C-15 -0.33 -15 -0.66 -15 -1 C-13.25181409 -1.22304441 -11.50129677 -1.4278645 -9.75 -1.625 C-8.77546875 -1.74101562 -7.8009375 -1.85703125 -6.796875 -1.9765625 C-3.86570607 -2.00112537 -2.45471036 -1.5312717 0 0 Z " fill="#4B1702" transform="translate(272,169)"/>
<path d="M0 0 C4.59309583 5.3850089 7.51819201 9.74531181 7 17 C5.88158632 14.91229447 5.0291824 13.14591199 4.5625 10.8125 C4.376875 10.214375 4.19125 9.61625 4 9 C3.01 8.67 2.02 8.34 1 8 C0.67 5.36 0.34 2.72 0 0 Z " fill="#E29B09" transform="translate(308,128)"/>
<path d="M0 0 C1.72251754 4.0845326 0.07280563 7.36973696 -1.4375 11.25 C-1.68048828 11.8996875 -1.92347656 12.549375 -2.17382812 13.21875 C-2.77285994 14.81616817 -3.38514321 16.40860594 -4 18 C-4.33 18 -4.66 18 -5 18 C-4.56699236 11.18012971 -3.09212176 6.08356979 0 0 Z " fill="#B15422" transform="translate(320,213)"/>
<path d="M0 0 C0.66 0.33 1.32 0.66 2 1 C2.42405527 3.64287967 2.69808127 6.15173535 2.875 8.8125 C2.9471875 9.53759766 3.019375 10.26269531 3.09375 11.00976562 C3.35239748 14.72952482 3.36578662 16.53882196 1.0078125 19.51171875 C0.34523437 20.00285156 -0.31734375 20.49398437 -1 21 C-1.66 20.34 -2.32 19.68 -3 19 C-2.34 18.67 -1.68 18.34 -1 18 C0.2062252 14.38132441 0.10816918 11.07493749 0.0625 7.3125 C0.05798828 6.61060547 0.05347656 5.90871094 0.04882812 5.18554688 C0.03706927 3.45699462 0.01913454 1.72848635 0 0 Z " fill="#784006" transform="translate(249,197)"/>
<path d="M0 0 C3.1479846 0.46884877 4.06535559 0.94130746 5.9375 3.4375 C3.95822369 3.4375 1.97882846 3.41710273 0 3.375 C-2.58993051 3.42785572 -4.60786488 3.68222766 -7.0625 4.4375 C-4.76482915 1.60959742 -3.67301925 0.52471704 0 0 Z " fill="#582B06" transform="translate(243.0625,185.5625)"/>
<path d="M0 0 C2.31 0.33 4.62 0.66 7 1 C7.33 1.99 7.66 2.98 8 4 C3.545 3.01 3.545 3.01 -1 2 C-0.67 1.34 -0.34 0.68 0 0 Z M-2 2 C-2 2.99 -2 3.98 -2 5 C-2.99 5.495 -2.99 5.495 -4 6 C-3.34 4.68 -2.68 3.36 -2 2 Z " fill="#874304" transform="translate(241,193)"/>
<path d="M0 0 C0.66 0 1.32 0 2 0 C2.33 1.65 2.66 3.3 3 5 C2.01 5 1.02 5 0 5 C-0.66 5.99 -1.32 6.98 -2 8 C-2.125 5.125 -2.125 5.125 -2 2 C-1.34 1.34 -0.68 0.68 0 0 Z " fill="#6B3307" transform="translate(186,249)"/>
<path d="M0 0 C1.485 0.99 1.485 0.99 3 2 C3.1875 5.125 3.1875 5.125 3 8 C1.68 7.34 0.36 6.68 -1 6 C-0.67 4.02 -0.34 2.04 0 0 Z " fill="#491D03" transform="translate(197,184)"/>
<path d="M0 0 C4.62 0 9.24 0 14 0 C14.33 0.99 14.66 1.98 15 3 C7.575 2.01 7.575 2.01 0 1 C0 0.67 0 0.34 0 0 Z " fill="#FEFB2B" transform="translate(163,176)"/>
<path d="M0 0 C0.33 0 0.66 0 1 0 C1.06058594 0.67546875 1.12117187 1.3509375 1.18359375 2.046875 C1.26738281 2.93890625 1.35117188 3.8309375 1.4375 4.75 C1.55931641 6.07257813 1.55931641 6.07257813 1.68359375 7.421875 C1.96238465 9.69350452 2.38790577 11.79851823 3 14 C2.01 14.495 2.01 14.495 1 15 C-1.80396138 10.05183286 -0.77350507 5.38317715 0 0 Z " fill="#784106" transform="translate(177,202)"/>
<path d="M0 0 C2 1 2 1 2.8515625 3.06640625 C3.10679687 3.89011719 3.36203125 4.71382812 3.625 5.5625 C3.88539063 6.38878906 4.14578125 7.21507812 4.4140625 8.06640625 C4.60742188 8.70449219 4.80078125 9.34257812 5 10 C4.01 10 3.02 10 2 10 C0.68373308 6.38026598 0 3.90432869 0 0 Z " fill="#EDE727" transform="translate(173,207)"/>
<path d="M0 0 C2.125 0.375 2.125 0.375 4 1 C1.51047079 3.66735273 -0.63408134 5.55746343 -4 7 C-2.92598892 4.08482708 -2.22189824 2.22189824 0 0 Z " fill="#F8F42B" transform="translate(240,182)"/>
<path d="M0 0 C1.36125 0.12375 1.36125 0.12375 2.75 0.25 C2.75 0.91 2.75 1.57 2.75 2.25 C-0.55 2.91 -3.85 3.57 -7.25 4.25 C-4.83923194 1.28290085 -3.90322061 0.30024774 0 0 Z " fill="#572906" transform="translate(185.25,185.75)"/>
<path d="M0 0 C0.66 0.33 1.32 0.66 2 1 C2 2.98 2 4.96 2 7 C0.68 6.34 -0.64 5.68 -2 5 C-1.34 3.35 -0.68 1.7 0 0 Z " fill="#4F2104" transform="translate(241,251)"/>
<path d="M0 0 C0.33 0 0.66 0 1 0 C0.67 2.64 0.34 5.28 0 8 C-1.32 8.33 -2.64 8.66 -4 9 C-2.68 6.03 -1.36 3.06 0 0 Z " fill="#EAE427" transform="translate(254,207)"/>
<path d="M0 0 C1.9375 0.25 1.9375 0.25 4 1 C4.66 1.99 5.32 2.98 6 4 C2 4 2 4 0.25 2.5 C-0.1625 2.005 -0.575 1.51 -1 1 C-0.67 0.67 -0.34 0.34 0 0 Z " fill="#E6DF2A" transform="translate(189,185)"/>
<path d="M0 0 C2.375 -0.1875 2.375 -0.1875 5 0 C5.66 0.99 6.32 1.98 7 3 C4 4 4 4 1 3 C0.67 2.01 0.34 1.02 0 0 Z " fill="#FBF72C" transform="translate(183,182)"/>
<path d="M0 0 C0.33 0 0.66 0 1 0 C0.67 2.64 0.34 5.28 0 8 C-0.99 7.67 -1.98 7.34 -3 7 C-2.01 4.69 -1.02 2.38 0 0 Z " fill="#EDE727" transform="translate(196,207)"/>
</svg>
