<?xml version="1.0" encoding="UTF-8"?>
<svg version="1.1" xmlns="http://www.w3.org/2000/svg" width="512" height="512">
<path d="M0 0 C1.4803624 -0.01045349 1.4803624 -0.01045349 2.9906311 -0.02111816 C6.15786039 -0.03842016 9.32491292 -0.04483771 12.4921875 -0.046875 C13.57165649 -0.04788208 14.65112549 -0.04888916 15.76330566 -0.04992676 C31.1977027 -0.0401636 46.15812815 0.3649977 61.3671875 3.203125 C63.05064812 3.48517076 64.73424299 3.76641634 66.41796875 4.046875 C102.50409804 10.37341382 137.31529611 25.49611303 165.3671875 49.203125 C165.91262207 49.65977539 166.45805664 50.11642578 167.02001953 50.58691406 C236.87824531 109.13585022 260.98127365 202.36240243 268.68188477 289.77539062 C269.46222378 300.01883275 269.62005192 310.25950617 269.66235352 320.52929688 C269.6739524 322.48575019 269.69452645 324.44216997 269.72387695 326.3984375 C270.03564274 347.29893737 270.03564274 347.29893737 265.3671875 356.203125 C264.64208984 357.69972656 264.64208984 357.69972656 263.90234375 359.2265625 C239.35274391 398.42778028 185.53847806 413.98055739 143.30078125 423.69116211 C107.93995522 431.48355734 71.86245066 436.32030808 35.6328125 436.40625 C34.80764885 436.40907738 33.9824852 436.41190475 33.13231659 436.41481781 C28.74771321 436.42970121 24.36314169 436.43899364 19.97851562 436.44335938 C16.4399968 436.44770112 12.90172772 436.46143986 9.36328125 436.484375 C-20.93630683 436.67649063 -50.94299423 435.49428264 -80.8828125 430.453125 C-82.03928284 430.26420685 -82.03928284 430.26420685 -83.21911621 430.07147217 C-126.92830524 422.91803245 -175.4724529 412.23943102 -211.6328125 385.203125 C-212.48617187 384.57019531 -213.33953125 383.93726563 -214.21875 383.28515625 C-227.21573416 373.26748077 -239.62084537 360.97762405 -242.6328125 344.203125 C-243.1798669 337.90731488 -243.06426501 331.57868004 -243.0078125 325.265625 C-243.00382446 324.36695709 -242.99983643 323.46828918 -242.99572754 322.54238892 C-242.85276416 294.87683762 -240.16937796 267.49149954 -235.6328125 240.203125 C-235.45524414 239.13368652 -235.27767578 238.06424805 -235.09472656 236.96240234 C-229.35335948 203.25617687 -219.75978466 170.34361949 -205.6328125 139.203125 C-205.27606445 138.40068359 -204.91931641 137.59824219 -204.55175781 136.77148438 C-196.09715976 117.78924869 -185.54160171 100.47720445 -172.6328125 84.203125 C-171.86324219 83.22085938 -171.09367187 82.23859375 -170.30078125 81.2265625 C-162.23747826 71.14380165 -153.61503454 61.4194046 -143.6328125 53.203125 C-142.76527344 52.44773438 -141.89773437 51.69234375 -141.00390625 50.9140625 C-102.68589452 17.95342924 -50.30209173 0.23949977 0 0 Z " fill="#FBC11B" transform="translate(242.6328125,37.796875)"/>
<path d="M0 0 C7.31216338 6.88203613 8.15059557 17.27910219 8.46142578 26.77197266 C8.73987275 44.65954676 2.93962849 60.47881406 -8.875 74 C-9.37257813 74.59167969 -9.87015625 75.18335938 -10.3828125 75.79296875 C-21.79922986 88.32808027 -40.85338231 97.12296844 -57.70483398 98.17700195 C-79.95816292 98.64461062 -99.64965673 96.71208882 -116.875 81 C-128.44881522 69.57538682 -136.84328803 54.11307851 -137.125 37.5625 C-137.05737202 33.00683313 -136.85558189 29.65361651 -133.875 26 C-130.5 24.75 -130.5 24.75 -126.875 25 C-124.73203519 27.04329203 -123.42215257 28.56876025 -121.875 31 C-118.97169669 35.57903986 -118.97169669 35.57903986 -114.875 39 C-107.3157858 40.31414032 -101.07052577 39.05994046 -94.140625 36.03125 C-93.41050201 35.72115494 -92.68037903 35.41105988 -91.9281311 35.09156799 C-83.82136409 31.61435215 -75.82440593 27.89208741 -67.83792114 24.14883423 C-65.18349649 22.90637155 -62.52576062 21.67126502 -59.86694336 20.43823242 C-52.18887729 16.87685291 -44.51465568 13.30865269 -36.86529541 9.68595886 C-34.04967742 8.35649617 -31.22723439 7.04204408 -28.40289307 5.73123169 C-27.11050738 5.12710028 -25.82127299 4.51617274 -24.5355835 3.8979187 C-16.33041099 -0.04469403 -8.97699386 -3.12243265 0 0 Z " fill="#302F2E" transform="translate(410.875,220)"/>
<path d="M0 0 C5.16479533 1.77810605 10.02648376 4.13008167 14.9375 6.5 C16.3787064 7.17784832 17.82086703 7.85367107 19.26391602 8.52758789 C22.29452075 9.94515193 25.32054971 11.37189197 28.34375 12.80517578 C35.25850477 16.07529975 42.2218662 19.23919894 49.18261719 22.40988159 C51.42070031 23.42984387 53.6577824 24.45196888 55.89453125 25.47485352 C63.56626353 28.98284802 71.23860283 32.48941766 78.9375 35.9375 C79.62835693 36.24937256 80.31921387 36.56124512 81.03100586 36.88256836 C88.85155959 40.36075071 96.11326614 40.9430539 104.5625 39.3125 C107.71618413 37.61436239 107.93039657 36.36161079 109 33 C112.47368421 27.52631579 112.47368421 27.52631579 114 26 C119.32818533 25.53667954 119.32818533 25.53667954 121.8125 27.25 C125.76438597 33.07383195 124.5744112 42.21626384 123.57421875 48.8046875 C119.84132129 64.24010399 110.97064749 78.84344031 97.5234375 87.51171875 C79.25400671 98.2867236 57.83826823 102.17280988 36.80859375 98.38671875 C33.38598248 97.48644904 30.25627463 96.38548223 27 95 C26.36835938 94.73155273 25.73671875 94.46310547 25.0859375 94.18652344 C4.1616244 85.06748158 -9.48594347 71.54533102 -18.1015625 50.28125 C-20.30308119 43.28577004 -20.30048977 36.14609476 -20.375 28.875 C-20.38909912 27.86131348 -20.40319824 26.84762695 -20.41772461 25.80322266 C-20.3559289 16.19594477 -18.9549332 7.9549332 -12 1 C-8.14151354 -0.92924323 -4.19668709 -0.59125149 0 0 Z " fill="#302F2E" transform="translate(110,219)"/>
<path d="M0 0 C0.99942627 0.43505859 0.99942627 0.43505859 2.01904297 0.87890625 C17.8370898 7.87717068 35.00983848 19.10437832 43 35 C43.75993335 39.48360676 43.37052671 41.29864588 41.25 45.3125 C37.85324833 49.36973116 36.35053057 49.87137804 31.0625 50.375 C26.8324719 50.23451936 25.00402222 49.08104843 22 46 C20.91153529 44.7544657 19.8287211 43.50398242 18.75 42.25 C5.5697352 26.9722307 -13.71938085 16.79141783 -34 15 C-66.41696831 13.69449356 -97.39256922 19.02723848 -122.2109375 41.32421875 C-123.79927948 42.81198886 -125.34751339 44.32518171 -126.875 45.875 C-129.52219238 48.52219238 -130.45643768 48.92539341 -134.1875 49.4375 C-138.5889983 48.93241003 -140.45635527 47.91709757 -143.60546875 44.91015625 C-146.10734421 41.4832176 -146.48254671 38.1544256 -146 34 C-144.79405532 31.30098095 -143.96148043 30.09488087 -142 28 C-141.29230469 27.2265625 -140.58460938 26.453125 -139.85546875 25.65625 C-134.38022299 19.93095364 -128.66682152 15.25496981 -122 11 C-121.25621094 10.49984375 -120.51242188 9.9996875 -119.74609375 9.484375 C-105.75338169 0.48736894 -90.12147263 -3.67045327 -74 -7 C-72.90816406 -7.2475 -71.81632812 -7.495 -70.69140625 -7.75 C-47.35636292 -12.30935718 -21.66931708 -9.62840888 0 0 Z " fill="#31302E" transform="translate(312,341)"/>
</svg>
